M48
;Layer_Color=9474304
;FILE_FORMAT=4:4
METRIC,LZ
;TYPE=PLATED
T01F00S00C0.3000
T02F00S00C1.0000
T03F00S00C1.4700
T05F00S00C1.7500
T06F00S00C3.9878
%
T01
X00138Y0026
X00204
X00304
Y0036
X00138
X00404
Y0026
X00504
X00604
X00704
X00604Y0036
X00804
Y0026
X00904
X01004
X01104
Y0036
X01004
X01204
X01304
X01404
X01504
Y0026
X01404
X01304
X01204
X01604
X01704
X01804
X01904
Y0036
X01804
X01704
X02004
X02104
X02204
X02304
Y0026
X02204
X02104
X02004
X02404
X02504
X02604
X02704
X02604Y0036
X02504
X02804
X02904
Y0026
X03004
X03104
X02804
X03204
X03304
X03404
X03526
X0353Y00378
X03534Y0046
Y00562
Y0066
Y0076
X03404
Y0066
Y0056
Y0046
X03304
Y0056
Y0066
Y0076
X03204
Y0066
Y0046
X03104
X03004
X02904
X02804
Y0066
X02904
X03004
X03104
Y0076
X02904
X02804
X02604
Y0066
X02504
Y0056
Y0046
X02604
X02704
Y0056
X02404
Y0066
Y0076
Y0046
X02304
Y0056
Y0066
Y0076
X02204Y0066
Y0056
X02104Y0046
X02004
Y0066
X02104Y0076
X01804Y0066
Y0046
X01904
X01704
X01604Y0066
X01404
X01304
X01204
X01304Y0046
X01404
X01504
X01104Y0066
X01004
X00904
X00804
X00904Y0046
X00704Y0056
Y0066
X00604
Y0046
X00504
X00404
Y0056
Y0066
Y0076
X00504
X00304Y0066
Y0056
X00204
X00138
Y0046
X00204
X00304
X00204Y0066
X00138
Y0076
X00204
Y0086
X00138
Y0096
X00204
Y0106
X00138Y0106
X00304Y0106
Y0086
X00204Y0116
X00404
Y0106
X00504
X00704
Y0096
X00604
Y0086
X00504
X00404
Y0096
X00904
Y0106
X01104
Y0096
X01004Y0086
X00804
X01004Y0116
X01204
Y0106
X01304
X01404
X01504
Y0116
X01404
Y0096
Y0086
X01504
X01304
Y0096
X01204Y0086
X01604
X01704
X01804
X01904
Y0106
Y0116
X01804Y0106
X01704
Y0116
X01604Y0106
X02004
X02104
X02204
X02304
Y0116
X02104
Y0086
X02204
X02304
X02004
X02404
X02504
X02704
X02604Y0096
Y0106
X02404
X02804
X02904
X03104
Y0086
X03004
X02904
X02804Y0096
X03004Y0116
X03178Y0117
X03226Y01162
X03286Y01182
X03304Y0116
X03311375Y01106594
X03312Y01056
X03296Y01012
X03206
X03236Y01058
X032Y01098
X03404Y0106
X03404Y01012
X03404Y0096
Y0086
X03304
X03204
X03534Y00862
Y0096
X03532Y0106
Y01162
X03404Y0116
X0342Y01258
Y01278
X03432Y01316
X03372Y0131
X03364Y01292
X0337Y01356
X03368Y01372
X03346Y0138
X03326
Y01402
X03346
Y01356
X03326
X03309935Y01363264
X03298029Y01387077
X03274216Y01398983
X0326231Y01404936
X03218Y0142
X03204Y0145
X03206Y01384
X0319Y01378
X03184919Y01363264
X0324Y01344
Y01322
X03264
Y01344
X03315888Y01327546
Y01315639
X03302Y01236
X0321Y01262
X03208732Y01273968
X03304Y0145
X03404
X03504
X03532Y0142
Y0136
Y01294
X03492Y01304
Y0133
X03468Y01368
X0349Y01262
Y01232
X03122Y01326
X03098Y01322
X03072Y01314
X0304Y0134
X03012
Y0136
Y0138
X0305
X0307
X03094
Y01362
X03122
Y0138
X03104Y0145
X03004
X02904
X02804
X02804Y0136
X03012Y0132
X02704Y0145
X02604
X02604Y0136
X02504Y0145
X02404
X02404Y0136
X02304Y0145
X02204
X02204Y0136
X02104Y0145
X02004
X02004Y0136
X01902Y0145
X01804
X01804Y0136
X01704Y0145
X01604
X01604Y0136
Y0126
X01504
X01502Y0145
X01404
Y0136
X01302Y0145
X01202
X01204Y0126
X01304
X01104
X01004
Y0136
Y0145
X00906
X00804
Y0136
Y0126
X00904
X01104Y0145
X007
X00604
X00604Y0136
X00502Y0145
X00404
X00404Y0126
X00504
X00704
X00304
X00298Y01334
X00244
X00182
X00158Y01298
X00214Y01296
Y01222
X00138Y01438
X00302Y0145
T02
X0344011Y01232296
X0346551
Y01262061
X0344011
X03412997Y01300883
Y01326283
Y01351683
Y01377083
X00239312Y014035
X00189312
Y012585
X00214312
X00239312
T03
X00176213Y00358775
X00239713Y00384175
X0043815Y00358775
X0050165Y00384175
X00676275Y00358775
X00739775Y00384175
X009144Y00358775
X009779Y00384175
X01628775Y00358775
X01692275Y00384175
X02366962Y00358775
X02430462Y00384175
X02652712Y00358775
X02716212Y00384175
X02938463Y0031115
X03001963Y0033655
X03128962Y0031115
X03192462Y0033655
X03319463Y0031115
X03382963Y0033655
X03367087Y00549275
X03430587Y00574675
Y00765175
X03367087Y00739775
X03192462Y0052705
X03128962Y0050165
X028829Y00574675
X028194Y00549275
X02962275Y00739775
X03025775Y00765175
X0271621Y00765174
X0265271Y00739774
X02525712Y00765175
X02462213Y00739775
X02430462Y00574675
X02557462Y00549275
X02620963Y00574675
X02366962Y00549275
X02239962Y00574675
X02176463Y00549275
X02049462Y00574675
X01985963Y00549275
X02081212Y00739775
X02144713Y00765175
X02271712Y00739775
X02335213Y00765175
X01954212
X01890712Y00739775
X01763712Y00765175
X01700213Y00739775
X01668463Y00574675
X01604962Y00549275
X01795462
X01858963Y00574675
X01477962
X01414462Y00549275
X01287462Y00574675
X01223962Y00549275
X01192213Y00765175
X01319212Y00739775
X01382713Y00765175
X01509713Y00739775
X01573212Y00765175
X01128712Y00739775
X01001712Y00765175
X00938213Y00739775
X00811212Y00765175
X00842962Y00549275
X00906462Y00574675
X01033463Y00549275
X01096963Y00574675
X005969
X005334Y00549275
X00549275Y00765175
X00485775Y00739775
X00747712
X00239713Y00765175
X00176213Y00739775
Y00549275
X00239713Y00574675
Y00955675
X00176213Y00930275
Y01120775
X00239713Y01146175
X00414338Y01120775
X00477837Y01146175
X00604837Y01120775
X00668337Y01146175
X00700088Y00930275
X00763587Y00955675
X00525462
X00461963Y00930275
X00890587
X00954088Y00955675
X01081087Y00930275
X01144587Y00955675
X01176338Y01120775
X01049337Y01146175
X00985837Y01120775
X00858838Y01146175
X00795338Y01120775
X01239837Y01146175
X01366837Y01120775
X01430338Y01146175
X01557337Y01120775
X01525587Y00955675
X01462088Y00930275
X01335087Y00955675
X01271588Y00930275
X01652587
X01716087Y00955675
X01843087Y00930275
X01906588Y00955675
X01938338Y01120775
X01811337Y01146175
X01747838Y01120775
X01620838Y01146175
X02001837
X02128837Y01120775
X02192337Y01146175
X02319337Y01120775
X02287587Y00955675
X02224088Y00930275
X02097088Y00955675
X02033587Y00930275
X02414588
X02478087Y00955675
X02605088Y00930275
X02668588Y00955675
X02700338Y01120775
X02763838Y01146175
X02573337
X02509837Y01120775
X02382838Y01146175
X02986088Y01120775
X03049587Y01146175
X03033712Y00930275
X03097213Y00955675
X02859088
X02795587Y00930275
X03367087
X03430587Y00955675
Y01146175
X03367087Y01120775
X02906713Y013843
X02843213Y013589
X02716212Y013843
X02652712Y013589
X02525712Y013843
X02462213Y013589
X02335213Y013843
X02271712Y013589
X02097088Y013843
X02033587Y013589
X01906588Y013843
X01843087Y013589
X01716087Y013843
X01652587Y013589
X01525587Y013843
X01462088Y013589
X01287462Y013843
X01223962Y013589
X01096963Y013843
X01033463Y013589
X00906462Y013843
X00842962Y013589
X00715963Y013843
X00652462Y013589
X00477837Y013843
X00414338Y013589
T05
X028067Y00523875
X029083
X00574675Y00714375
X00473075
X02973387Y01095375
X03074987
T06
X028575Y00523875
X00523875Y00714375
M30
