M48
;Layer_Color=9474304
;FILE_FORMAT=2:4
INCH,TZ
;TYPE=NON_PLATED
T05F00S00C0.0689
T06F00S00C0.1200
T07F00S00C0.1570
%
T05
X6438Y13125
X10438
X16750
X20750
X26125
X30125
X35500
X39500
X63625
X67625
X92688
X96687
X103938
X107937
X115188Y11250
X119187
X122688
X126687
X130188
X134187
X136062Y20625
X132063
X126687Y18750
X132063Y28125
X136062
X120125
X116125
X114500Y20625
X110500
X122688Y18750
X104187Y20625
X100188
X96687
X96438Y28125
X100437
X103937Y28125
X107937
X92937Y28125
X88938
X85437
X81438
X81687Y20625
X85188
X89187
X92688
X77688
X74187
X70188
X66687
X62688
X62937Y28125
X66438
X70437
X73938
X77937
X58938
X55437
X51438
X47937
X47688Y20625
X51687
X55188
X59187
X44187
X40188
X36688
X32687
X32938Y28125
X36437
X40437
X43938
X28937
X22625
X18625
X20500Y20625
X24500
X10438
X6438
Y28125
X10438
Y35625
X6438
Y43125
X10438
X15812
X19813
X23312
X27313
X30812
X31063Y35625
X27062
X21688
X17687
X34562
X38563
X42063
X46062
X45813Y43125
X42312
X38312
X34813
X49812
X53313
X57312
X60813
X61062Y35625
X57063
X53562
X49563
X64563
X68562
X72063
X76062
X75813Y43125
X72312
X68313
X64812
X79812
X83313
X87312
X90813
X91062Y35625
X87063
X83562
X79563
X94563
X98562
X102063
X106062
X105813Y43125
X102312
X98313
X94812
X109812
X117063
X121062
X122937Y35625
X118938
X113562
X109563
X132063
X136062
Y43125
X132063
X115437Y52500
X111438
X107937
X103938
X100437
X96438
X92937
X88938
X83562
X79563
X76062
X72063
X68562
X64563
X61062
X57063
X51687
X47688
X44187
X40188
X36688
X32687
X29188
X25187
X19813
X15812
T06
X45940Y10375
X85310
X113438Y30875
X122812
X27188Y23375
X17812
X114375Y45875
X123750
T07
X8438Y13125
X18750
X28125
X37500
X65625
X94688
X105938
X117188Y11250
X124688
X132188
X134062Y20625
Y28125
X122812Y24875
X118125Y28125
X113438Y24875
X112500Y20625
X124688Y18750
X102188Y20625
X94688
X98438Y28125
X105937Y28125
X90938Y28125
X83438
X79688Y20625
X87188
X85310Y16375
X72188Y20625
X64688
X68438Y28125
X75938
X60938
X53438
X49688Y20625
X57188
X42188
X34688
X38438Y28125
X45938
X45940Y16375
X27188Y17375
X22500Y20625
X17812Y17375
X20625Y28125
X30938
X8438
Y20625
Y35625
Y43125
X17812
X25312
X29062Y35625
X19688
X36562
X44062
X40312Y43125
X32812
X47812
X55312
X51562Y35625
X59062
X66562
X74062
X70312Y43125
X62812
X77812
X85312
X92812
X89062Y35625
X81562
X96562
X104062
X100312Y43125
X107812
X114375Y39875
X111562Y35625
X120938
X123750Y39875
X119062Y43125
X134062
Y35625
X113438Y52500
X105938
X98438
X90938
X81562
X74062
X66562
X59062
X49688
X42188
X34688
X27188
X17812
M30
