M48
;Layer_Color=9474304
;FILE_FORMAT=4:4
METRIC,LZ
;TYPE=NON_PLATED
T05F00S00C1.7500
T06F00S00C3.0480
T07F00S00C3.9878
%
T05
X00163512Y00333375
X00265112
X0042545
X0052705
X00663575
X00765175
X009017
X010033
X01616075
X01717675
X02354263
X02455862
X02640013
X02741613
X02925763Y0028575
X03027362
X03116263
X03217863
X03306762
X03408362
X03455988Y00523875
X03354388
X03217863Y0047625
X03354388Y00714375
X03455988
X03051175
X02949575
X029083Y00523875
X028067
X03116263Y0047625
X02646363Y00523875
X02544763
X02455862
X02449512Y00714375
X02551113
X0264001Y00714374
X0274161
X02360612Y00714375
X02259012
X02170112
X02068513
X02074863Y00523875
X02163763
X02265363
X02354263
X01973262
X01884362
X01782762
X01693862
X01592263
X01598613Y00714375
X01687513
X01789113
X01878013
X01979612
X01497012
X01408112
X01306512
X01217613
X01211263Y00523875
X01312863
X01401763
X01503362
X01122363
X01020762
X00931862
X00830263
X00836612Y00714375
X00925512
X01027113
X01116012
X00735013
X00574675
X00473075
X005207Y00523875
X006223
X00265112
X00163512
Y00714375
X00265112
Y00904875
X00163512
Y01095375
X00265112
X00401637
X00503237
X00592137
X00693737
X00782637
X00788988Y00904875
X00687387
X00550863
X00449263
X00877887
X00979488
X01068388
X01169987
X01163637Y01095375
X01074737
X00973138
X00884238
X01265238
X01354138
X01455737
X01544637
X01550988Y00904875
X01449388
X01360488
X01258887
X01639888
X01741487
X01830388
X01931987
X01925638Y01095375
X01836738
X01735137
X01646237
X02027238
X02116138
X02217737
X02306638
X02312988Y00904875
X02211387
X02122487
X02020887
X02401888
X02503488
X02592387
X02693987
X02687638Y01095375
X02598737
X02497137
X02408237
X02789237
X02973387
X03074987
X03122613Y00904875
X03021013
X02884488
X02782888
X03354388
X03455988
Y01095375
X03354388
X02932112Y013335
X02830512
X02741613
X02640013
X02551113
X02449512
X02360612
X02259012
X02122487
X02020887
X01931987
X01830388
X01741487
X01639888
X01550988
X01449388
X01312863
X01211263
X01122363
X01020762
X00931862
X00830263
X00741363
X00639762
X00503237
X00401637
T06
X01166876Y00263525
X02166874
X02881313Y00784225
X03119438
X00690563Y00593725
X00452438
X02905125Y01165225
X0314325
T07
X00214312Y00333375
X0047625
X00714375
X009525
X01666875
X02405063
X02690812
X02976562Y0028575
X03167062
X03357563
X03405187Y00523875
Y00714375
X03119438Y00631825
X03000375Y00714375
X02881313Y00631825
X028575Y00523875
X03167062Y0047625
X02595562Y00523875
X02405063
X02500312Y00714375
X0269081Y00714374
X02309812Y00714375
X02119312
X02024062Y00523875
X02214563
X02166874Y00415925
X01833562Y00523875
X01643062
X01738313Y00714375
X01928813
X01547812
X01357312
X01262063Y00523875
X01452563
X01071562
X00881062
X00976312Y00714375
X01166813
X01166876Y00415925
X00690563Y00441325
X005715Y00523875
X00452438Y00441325
X00523875Y00714375
X00785813
X00214312
Y00523875
Y00904875
Y01095375
X00452438
X00642937
X00738187Y00904875
X00500062
X00928688
X01119187
X01023938Y01095375
X00833438
X01214437
X01404937
X01309688Y00904875
X01500188
X01690688
X01881187
X01785938Y01095375
X01595437
X01976438
X02166938
X02357437
X02262188Y00904875
X02071687
X02452688
X02643188
X02547937Y01095375
X02738438
X02905125Y01012825
X02833687Y00904875
X03071812
X0314325Y01012825
X03024188Y01095375
X03405187
Y00904875
X02881313Y013335
X02690812
X02500312
X02309812
X02071687
X01881187
X01690688
X01500188
X01262063
X01071562
X00881062
X00690563
X00452438
M30
