M48
;Layer_Color=9474304
;FILE_FORMAT=2:4
INCH,TZ
;TYPE=PLATED
T01F00S00C0.0118
T02F00S00C0.0394
T03F00S00C0.0579
%
T01
X5433Y10236
X8031
X11968
Y14173
X5433
X15906
Y10236
X19843
X23780
X27717
X23780Y14173
X31654
Y10236
X35591
X39528
X43465
Y14173
X39528
X47402
X51339
X55276
X59213
Y10236
X55276
X51339
X47402
X63150
X67087
X71024
X74961
Y14173
X71024
X67087
X78898
X82835
X86772
X90709
Y10236
X86772
X82835
X78898
X94646
X98583
X102520
X106457
X102520Y14173
X98583
X110394
X114331
Y10236
X118268
X122205
X110394
X126142
X130079
X134016
X138819
X138976Y14882
X139134Y18110
Y22126
Y25984
Y29921
X134016
Y25984
Y22047
Y18110
X130079
Y22047
Y25984
Y29921
X126142
Y25984
Y18110
X122205
X118268
X114331
X110394
Y25984
X114331
X118268
X122205
Y29921
X114331
X110394
X102520
Y25984
X98583
Y22047
Y18110
X102520
X106457
Y22047
X94646
Y25984
Y29921
Y18110
X90709
Y22047
Y25984
Y29921
X86772Y25984
Y22047
X82835Y18110
X78898
Y25984
X82835Y29921
X71024Y25984
Y18110
X74961
X67087
X63150Y25984
X55276
X51339
X47402
X51339Y18110
X55276
X59213
X43465Y25984
X39528
X35591
X31654
X35591Y18110
X27717Y22047
Y25984
X23780
Y18110
X19843
X15906
Y22047
Y25984
Y29921
X19843
X11968Y25984
Y22047
X8031
X5433
Y18110
X8031
X11968
X8031Y25984
X5433
Y29921
X8031
Y33858
X5433
Y37795
X8031
Y41732
X5433Y41732
X11968Y41732
Y33858
X8031Y45669
X15906
Y41732
X19843
X27717
Y37795
X23780
Y33858
X19843
X15906
Y37795
X35591
Y41732
X43465
Y37795
X39528Y33858
X31654
X39528Y45669
X47402
Y41732
X51339
X55276
X59213
Y45669
X55276
Y37795
Y33858
X59213
X51339
Y37795
X47402Y33858
X63150
X67087
X71024
X74961
Y41732
Y45669
X71024Y41732
X67087
Y45669
X63150Y41732
X78898
X82835
X86772
X90709
Y45669
X82835
Y33858
X86772
X90709
X78898
X94646
X98583
X106457
X102520Y37795
Y41732
X94646
X110394
X114331
X122205
Y33858
X118268
X114331
X110394Y37795
X118268Y45669
X125118Y46063
X127008Y45748
X129370Y46535
X130079Y45669
X130369Y43567
X130394Y41575
X129764Y39843
X126220
X127402Y41654
X125984Y43228
X134016Y41732
X134016Y39843
X134016Y37795
Y33858
X130079
X126142
X139134Y33937
Y37795
X139055Y41732
Y45748
X134016Y45669
X134646Y49528
Y50315
X135118Y51811
X132756Y51575
X132441Y50866
X132677Y53386
X132598Y54016
X131732Y54331
X130945
Y55197
X131732
Y53386
X130945
X130312Y53672
X129844Y54609
X128906Y55078
X128437Y55312
X126693Y55906
X126142Y56535
X126220Y54488
X125591Y54252
X125391Y53672
X127559Y52913
Y52047
X128504
Y52913
X130547Y52266
Y51797
X130000Y48661
X126378Y49685
X126328Y50156
X137402Y49685
Y48504
X137480Y51339
Y52362
X136535Y53858
X139055Y53543
Y55906
Y50945
X122913Y52205
X121968Y52047
X120945Y51732
X119685Y52756
X118583
Y53543
Y54331
X120079
X120866
X121811
Y53622
X122913
Y54331
X122205Y56535
X118268
X114331
X110394
X110394Y53543
X118583Y51968
X106457Y56535
X102520
X102520Y53543
X98583Y56535
X94646
X94646Y53543
X90709Y56535
X86772
X86772Y53543
X82835Y56535
X78898
X78898Y53543
X74882Y56535
X71024
X71024Y53543
X67087Y56535
X63150
X63150Y53543
Y49606
X59213
X59134Y56535
X55276
Y53543
X51260Y56535
X47323
X47402Y49606
X51339
X43465
X39528
Y53543
Y56535
X35669
X31654
Y53543
Y49606
X35591
X43465Y56535
X27559
X23780
X23780Y53543
X19764Y56535
X15906
X15906Y49606
X19843
X27717
X11968
X11732Y52520
X9606
X7165
X6220Y51102
X8425Y51024
Y48110
X5433Y56063
X11890Y56535
T02
X135437Y48516
X136437
Y49687
X135437
X134370Y51216
Y52216
Y53216
Y54216
X9422Y55256
X7453
Y49547
X8438
X9422
T03
X6938Y14125
X9438Y15125
X17250Y14125
X19750Y15125
X26625Y14125
X29125Y15125
X36000Y14125
X38500Y15125
X64125Y14125
X66625Y15125
X93188Y14125
X95688Y15125
X104438Y14125
X106938Y15125
X115688Y12250
X118188Y13250
X123188Y12250
X125688Y13250
X130688Y12250
X133188Y13250
X132563Y21625
X135063Y22625
Y30125
X132563Y29125
X125688Y20750
X123188Y19750
X113500Y22625
X111000Y21625
X116625Y29125
X119125Y30125
X106937Y30125
X104437Y29125
X99438Y30125
X96938Y29125
X95688Y22625
X100688Y21625
X103188Y22625
X93188Y21625
X88188Y22625
X85688Y21625
X80688Y22625
X78187Y21625
X81938Y29125
X84438Y30125
X89438Y29125
X91938Y30125
X76937
X74437Y29125
X69437Y30125
X66937Y29125
X65687Y22625
X63187Y21625
X70687
X73187Y22625
X58187
X55687Y21625
X50687Y22625
X48187Y21625
X46937Y30125
X51937Y29125
X54437Y30125
X59437Y29125
X61937Y30125
X44437Y29125
X39437Y30125
X36937Y29125
X31937Y30125
X33187Y21625
X35687Y22625
X40687Y21625
X43187Y22625
X23500
X21000Y21625
X21625Y30125
X19125Y29125
X29437
X9438Y30125
X6938Y29125
Y21625
X9438Y22625
Y37625
X6938Y36625
Y44125
X9438Y45125
X16313Y44125
X18813Y45125
X23812Y44125
X26312Y45125
X27562Y36625
X30062Y37625
X20687
X18188Y36625
X35062
X37562Y37625
X42562Y36625
X45062Y37625
X46312Y44125
X41312Y45125
X38812Y44125
X33812Y45125
X31312Y44125
X48812Y45125
X53812Y44125
X56312Y45125
X61312Y44125
X60062Y37625
X57562Y36625
X52562Y37625
X50062Y36625
X65062
X67562Y37625
X72562Y36625
X75062Y37625
X76312Y44125
X71312Y45125
X68812Y44125
X63812Y45125
X78812
X83813Y44125
X86313Y45125
X91313Y44125
X90063Y37625
X87563Y36625
X82563Y37625
X80063Y36625
X95063
X97563Y37625
X102563Y36625
X105063Y37625
X106313Y44125
X108813Y45125
X101313
X98813Y44125
X93813Y45125
X117563Y44125
X120063Y45125
X119438Y36625
X121938Y37625
X112563
X110063Y36625
X132563
X135063Y37625
Y45125
X132563Y44125
X114438Y54500
X111938Y53500
X106938Y54500
X104438Y53500
X99438Y54500
X96938Y53500
X91938Y54500
X89438Y53500
X82563Y54500
X80063Y53500
X75062Y54500
X72562Y53500
X67562Y54500
X65062Y53500
X60062Y54500
X57562Y53500
X50687Y54500
X48187Y53500
X43187Y54500
X40687Y53500
X35687Y54500
X33187Y53500
X28187Y54500
X25687Y53500
X18813Y54500
X16313Y53500
M30
