G04*
G04 #@! TF.GenerationSoftware,Altium Limited,Altium Designer,25.6.2 (33)*
G04*
G04 Layer_Color=8388736*
%FSLAX44Y44*%
%MOMM*%
G71*
G04*
G04 #@! TF.SameCoordinates,B7A76CE3-19EA-4564-99E6-97BD9BEAA24B*
G04*
G04*
G04 #@! TF.FilePolarity,Negative*
G04*
G01*
G75*
%ADD11C,2.2032*%
G04:AMPARAMS|DCode=12|XSize=3.5032mm|YSize=2.2032mm|CornerRadius=0.6016mm|HoleSize=0mm|Usage=FLASHONLY|Rotation=90.000|XOffset=0mm|YOffset=0mm|HoleType=Round|Shape=RoundedRectangle|*
%AMROUNDEDRECTD12*
21,1,3.5032,1.0000,0,0,90.0*
21,1,2.3000,2.2032,0,0,90.0*
1,1,1.2032,0.5000,1.1500*
1,1,1.2032,0.5000,-1.1500*
1,1,1.2032,-0.5000,-1.1500*
1,1,1.2032,-0.5000,1.1500*
%
%ADD12ROUNDEDRECTD12*%
%ADD13C,4.1910*%
%ADD14C,3.2512*%
%ADD15C,2.4532*%
%ADD16C,1.9532*%
G04:AMPARAMS|DCode=17|XSize=1.9032mm|YSize=1.9032mm|CornerRadius=0.9516mm|HoleSize=0mm|Usage=FLASHONLY|Rotation=0.000|XOffset=0mm|YOffset=0mm|HoleType=Round|Shape=RoundedRectangle|*
%AMROUNDEDRECTD17*
21,1,1.9032,0.0000,0,0,0.0*
21,1,0.0000,1.9032,0,0,0.0*
1,1,1.9032,0.0000,0.0000*
1,1,1.9032,0.0000,0.0000*
1,1,1.9032,0.0000,0.0000*
1,1,1.9032,0.0000,0.0000*
%
%ADD17ROUNDEDRECTD17*%
%ADD18R,1.9032X1.9032*%
%ADD19O,1.6000X2.4000*%
%ADD20R,1.6000X2.4000*%
D11*
X189312Y1403500D02*
D03*
X239312D02*
D03*
X214312Y1258500D02*
D03*
X239312D02*
D03*
X189312D02*
D03*
D12*
X158313Y1333500D02*
D03*
X270312D02*
D03*
D13*
X2166874Y415925D02*
D03*
X1166876D02*
D03*
X1666875Y333375D02*
D03*
X2881313Y631825D02*
D03*
X3000375Y714375D02*
D03*
X3119438Y631825D02*
D03*
X452438Y441325D02*
D03*
X571500Y523875D02*
D03*
X690563Y441325D02*
D03*
X523875Y714375D02*
D03*
X2857500Y523875D02*
D03*
X476250Y333375D02*
D03*
X714375D02*
D03*
X952500D02*
D03*
X500062Y904875D02*
D03*
X3071812D02*
D03*
X2405063Y333375D02*
D03*
X2690812D02*
D03*
X3143250Y1012825D02*
D03*
X3024188Y1095375D02*
D03*
X2905125Y1012825D02*
D03*
X452438Y1333500D02*
D03*
X690563D02*
D03*
X881062D02*
D03*
X1071562D02*
D03*
X1262063D02*
D03*
X1500188D02*
D03*
X1690688D02*
D03*
X1881187D02*
D03*
X2071687D02*
D03*
X2309812D02*
D03*
X2500312D02*
D03*
X2690812D02*
D03*
X2881313D02*
D03*
X214312Y1095375D02*
D03*
X452438D02*
D03*
X642937D02*
D03*
X833438D02*
D03*
X1023938D02*
D03*
X1214437D02*
D03*
X1404937D02*
D03*
X1595437D02*
D03*
X1785938D02*
D03*
X1976438D02*
D03*
X2166938D02*
D03*
X2357437D02*
D03*
X2547937D02*
D03*
X2738438D02*
D03*
X3405187D02*
D03*
X214312Y904875D02*
D03*
X738187D02*
D03*
X928688D02*
D03*
X1119187D02*
D03*
X1309688D02*
D03*
X1500188D02*
D03*
X1690688D02*
D03*
X1881187D02*
D03*
X2071687D02*
D03*
X2262188D02*
D03*
X2452688D02*
D03*
X2643188D02*
D03*
X2833687D02*
D03*
X3405187D02*
D03*
X214312Y714375D02*
D03*
X785813D02*
D03*
X976312D02*
D03*
X1166813D02*
D03*
X1357312D02*
D03*
X1547812D02*
D03*
X1738313D02*
D03*
X1928813D02*
D03*
X2119312D02*
D03*
X2309812D02*
D03*
X2500312D02*
D03*
X2690810Y714374D02*
D03*
X3405187Y714375D02*
D03*
X214312Y523875D02*
D03*
X881062D02*
D03*
X1071562D02*
D03*
X1262063D02*
D03*
X1452563D02*
D03*
X1643062D02*
D03*
X1833562D02*
D03*
X2024062D02*
D03*
X2214563D02*
D03*
X2405063D02*
D03*
X2595562D02*
D03*
X3167062Y476250D02*
D03*
X3405187Y523875D02*
D03*
X214312Y333375D02*
D03*
X2976562Y285750D02*
D03*
X3167062D02*
D03*
X3357563D02*
D03*
D14*
X2166874Y263525D02*
D03*
X1166876D02*
D03*
X3119438Y784225D02*
D03*
X2881313D02*
D03*
X690563Y593725D02*
D03*
X452438D02*
D03*
X2905125Y1165225D02*
D03*
X3143250D02*
D03*
D15*
X1692275Y384175D02*
D03*
X1628775Y358775D02*
D03*
X2962275Y739775D02*
D03*
X3025775Y765175D02*
D03*
X533400Y549275D02*
D03*
X596900Y574675D02*
D03*
X485775Y739775D02*
D03*
X549275Y765175D02*
D03*
X2819400Y549275D02*
D03*
X2882900Y574675D02*
D03*
X438150Y358775D02*
D03*
X501650Y384175D02*
D03*
X739775D02*
D03*
X676275Y358775D02*
D03*
X914400D02*
D03*
X977900Y384175D02*
D03*
X461963Y930275D02*
D03*
X525462Y955675D02*
D03*
X3033712Y930275D02*
D03*
X3097213Y955675D02*
D03*
X2366962Y358775D02*
D03*
X2430462Y384175D02*
D03*
X2652712Y358775D02*
D03*
X2716212Y384175D02*
D03*
X3049587Y1146175D02*
D03*
X2986088Y1120775D02*
D03*
X414338Y1358900D02*
D03*
X477837Y1384300D02*
D03*
X652462Y1358900D02*
D03*
X715963Y1384300D02*
D03*
X842962Y1358900D02*
D03*
X906462Y1384300D02*
D03*
X1033463Y1358900D02*
D03*
X1096963Y1384300D02*
D03*
X1223962Y1358900D02*
D03*
X1287462Y1384300D02*
D03*
X1462088Y1358900D02*
D03*
X1525587Y1384300D02*
D03*
X1652587Y1358900D02*
D03*
X1716087Y1384300D02*
D03*
X1843087Y1358900D02*
D03*
X1906588Y1384300D02*
D03*
X2033587Y1358900D02*
D03*
X2097088Y1384300D02*
D03*
X2271712Y1358900D02*
D03*
X2335213Y1384300D02*
D03*
X2462213Y1358900D02*
D03*
X2525712Y1384300D02*
D03*
X2652712Y1358900D02*
D03*
X2716212Y1384300D02*
D03*
X2843213Y1358900D02*
D03*
X2906713Y1384300D02*
D03*
X176213Y1120775D02*
D03*
X239713Y1146175D02*
D03*
X414338Y1120775D02*
D03*
X477837Y1146175D02*
D03*
X604837Y1120775D02*
D03*
X668337Y1146175D02*
D03*
X795338Y1120775D02*
D03*
X858838Y1146175D02*
D03*
X985837Y1120775D02*
D03*
X1049337Y1146175D02*
D03*
X1176338Y1120775D02*
D03*
X1239837Y1146175D02*
D03*
X1366837Y1120775D02*
D03*
X1430338Y1146175D02*
D03*
X1557337Y1120775D02*
D03*
X1620838Y1146175D02*
D03*
X1747838Y1120775D02*
D03*
X1811337Y1146175D02*
D03*
X1938338Y1120775D02*
D03*
X2001837Y1146175D02*
D03*
X2128837Y1120775D02*
D03*
X2192337Y1146175D02*
D03*
X2319337Y1120775D02*
D03*
X2382838Y1146175D02*
D03*
X2509837Y1120775D02*
D03*
X2573337Y1146175D02*
D03*
X2700338Y1120775D02*
D03*
X2763838Y1146175D02*
D03*
X3367087Y1120775D02*
D03*
X3430587Y1146175D02*
D03*
X176213Y930275D02*
D03*
X239713Y955675D02*
D03*
X700088Y930275D02*
D03*
X763587Y955675D02*
D03*
X890587Y930275D02*
D03*
X954088Y955675D02*
D03*
X1081087Y930275D02*
D03*
X1144587Y955675D02*
D03*
X1271588Y930275D02*
D03*
X1335087Y955675D02*
D03*
X1462088Y930275D02*
D03*
X1525587Y955675D02*
D03*
X1652587Y930275D02*
D03*
X1716087Y955675D02*
D03*
X1843087Y930275D02*
D03*
X1906588Y955675D02*
D03*
X2033587Y930275D02*
D03*
X2097088Y955675D02*
D03*
X2224088Y930275D02*
D03*
X2287587Y955675D02*
D03*
X2414588Y930275D02*
D03*
X2478087Y955675D02*
D03*
X2605088Y930275D02*
D03*
X2668588Y955675D02*
D03*
X2795587Y930275D02*
D03*
X2859088Y955675D02*
D03*
X3367087Y930275D02*
D03*
X3430587Y955675D02*
D03*
X176213Y739775D02*
D03*
X239713Y765175D02*
D03*
X747712Y739775D02*
D03*
X811212Y765175D02*
D03*
X938213Y739775D02*
D03*
X1001712Y765175D02*
D03*
X1128712Y739775D02*
D03*
X1192213Y765175D02*
D03*
X1319212Y739775D02*
D03*
X1382713Y765175D02*
D03*
X1509713Y739775D02*
D03*
X1573212Y765175D02*
D03*
X1700213Y739775D02*
D03*
X1763712Y765175D02*
D03*
X1890712Y739775D02*
D03*
X1954212Y765175D02*
D03*
X2081212Y739775D02*
D03*
X2144713Y765175D02*
D03*
X2271712Y739775D02*
D03*
X2335213Y765175D02*
D03*
X2462213Y739775D02*
D03*
X2525712Y765175D02*
D03*
X2652710Y739774D02*
D03*
X2716210Y765174D02*
D03*
X3367087Y739775D02*
D03*
X3430587Y765175D02*
D03*
X176213Y549275D02*
D03*
X239713Y574675D02*
D03*
X842962Y549275D02*
D03*
X906462Y574675D02*
D03*
X1033463Y549275D02*
D03*
X1096963Y574675D02*
D03*
X1223962Y549275D02*
D03*
X1287462Y574675D02*
D03*
X1414462Y549275D02*
D03*
X1477962Y574675D02*
D03*
X1604962Y549275D02*
D03*
X1668463Y574675D02*
D03*
X1795462Y549275D02*
D03*
X1858963Y574675D02*
D03*
X1985963Y549275D02*
D03*
X2049462Y574675D02*
D03*
X2176463Y549275D02*
D03*
X2239962Y574675D02*
D03*
X2366962Y549275D02*
D03*
X2430462Y574675D02*
D03*
X2557462Y549275D02*
D03*
X2620963Y574675D02*
D03*
X3128962Y501650D02*
D03*
X3192462Y527050D02*
D03*
X3367087Y549275D02*
D03*
X3430587Y574675D02*
D03*
X176213Y358775D02*
D03*
X239713Y384175D02*
D03*
X2938463Y311150D02*
D03*
X3001963Y336550D02*
D03*
X3128962Y311150D02*
D03*
X3192462Y336550D02*
D03*
X3319463Y311150D02*
D03*
X3382963Y336550D02*
D03*
D16*
X1616075Y333375D02*
D03*
X1717675D02*
D03*
X3051175Y714375D02*
D03*
X2949575D02*
D03*
X622300Y523875D02*
D03*
X520700D02*
D03*
X574675Y714375D02*
D03*
X473075D02*
D03*
X2908300Y523875D02*
D03*
X2806700D02*
D03*
X527050Y333375D02*
D03*
X425450D02*
D03*
X663575D02*
D03*
X765175D02*
D03*
X1003300D02*
D03*
X901700D02*
D03*
X550863Y904875D02*
D03*
X449263D02*
D03*
X3122613D02*
D03*
X3021013D02*
D03*
X2455862Y333375D02*
D03*
X2354263D02*
D03*
X2741613D02*
D03*
X2640013D02*
D03*
X2973387Y1095375D02*
D03*
X3074987D02*
D03*
X503237Y1333500D02*
D03*
X401637D02*
D03*
X741363D02*
D03*
X639762D02*
D03*
X931862D02*
D03*
X830263D02*
D03*
X1122363D02*
D03*
X1020762D02*
D03*
X1312863D02*
D03*
X1211263D02*
D03*
X1550988D02*
D03*
X1449388D02*
D03*
X1741487D02*
D03*
X1639888D02*
D03*
X1931987D02*
D03*
X1830388D02*
D03*
X2122487D02*
D03*
X2020887D02*
D03*
X2360612D02*
D03*
X2259012D02*
D03*
X2551113D02*
D03*
X2449512D02*
D03*
X2741613D02*
D03*
X2640013D02*
D03*
X2932112D02*
D03*
X2830512D02*
D03*
X265112Y1095375D02*
D03*
X163512D02*
D03*
X503237D02*
D03*
X401637D02*
D03*
X693737D02*
D03*
X592137D02*
D03*
X884238D02*
D03*
X782637D02*
D03*
X1074737D02*
D03*
X973138D02*
D03*
X1265238D02*
D03*
X1163637D02*
D03*
X1455737D02*
D03*
X1354138D02*
D03*
X1646237D02*
D03*
X1544637D02*
D03*
X1836738D02*
D03*
X1735137D02*
D03*
X2027238D02*
D03*
X1925638D02*
D03*
X2217737D02*
D03*
X2116138D02*
D03*
X2408237D02*
D03*
X2306638D02*
D03*
X2598737D02*
D03*
X2497137D02*
D03*
X2789237D02*
D03*
X2687638D02*
D03*
X3455988D02*
D03*
X3354388D02*
D03*
X265112Y904875D02*
D03*
X163512D02*
D03*
X788988D02*
D03*
X687387D02*
D03*
X979488D02*
D03*
X877887D02*
D03*
X1169987D02*
D03*
X1068388D02*
D03*
X1360488D02*
D03*
X1258887D02*
D03*
X1550988D02*
D03*
X1449388D02*
D03*
X1741487D02*
D03*
X1639888D02*
D03*
X1931987D02*
D03*
X1830388D02*
D03*
X2122487D02*
D03*
X2020887D02*
D03*
X2312988D02*
D03*
X2211387D02*
D03*
X2503488D02*
D03*
X2401888D02*
D03*
X2693987D02*
D03*
X2592387D02*
D03*
X2884488D02*
D03*
X2782888D02*
D03*
X3455988D02*
D03*
X3354388D02*
D03*
X265112Y714375D02*
D03*
X163512D02*
D03*
X836612D02*
D03*
X735013D02*
D03*
X1027113D02*
D03*
X925512D02*
D03*
X1217613D02*
D03*
X1116012D02*
D03*
X1408112D02*
D03*
X1306512D02*
D03*
X1598613D02*
D03*
X1497012D02*
D03*
X1789113D02*
D03*
X1687513D02*
D03*
X1979612D02*
D03*
X1878013D02*
D03*
X2170112D02*
D03*
X2068513D02*
D03*
X2360612D02*
D03*
X2259012D02*
D03*
X2551113D02*
D03*
X2449512D02*
D03*
X2741610Y714374D02*
D03*
X2640010D02*
D03*
X3455988Y714375D02*
D03*
X3354388D02*
D03*
X265112Y523875D02*
D03*
X163512D02*
D03*
X931862D02*
D03*
X830263D02*
D03*
X1122363D02*
D03*
X1020762D02*
D03*
X1312863D02*
D03*
X1211263D02*
D03*
X1503362D02*
D03*
X1401763D02*
D03*
X1693862D02*
D03*
X1592263D02*
D03*
X1884362D02*
D03*
X1782762D02*
D03*
X2074863D02*
D03*
X1973262D02*
D03*
X2265363D02*
D03*
X2163763D02*
D03*
X2455862D02*
D03*
X2354263D02*
D03*
X2646363D02*
D03*
X2544763D02*
D03*
X3217863Y476250D02*
D03*
X3116263D02*
D03*
X3455988Y523875D02*
D03*
X3354388D02*
D03*
X265112Y333375D02*
D03*
X163512D02*
D03*
X3027362Y285750D02*
D03*
X2925763D02*
D03*
X3217863D02*
D03*
X3116263D02*
D03*
X3408362D02*
D03*
X3306762D02*
D03*
D17*
X3412997Y1351683D02*
D03*
Y1326283D02*
D03*
Y1300883D02*
D03*
D18*
Y1377083D02*
D03*
D19*
X3465510Y1232296D02*
D03*
Y1262061D02*
D03*
D20*
X3440110Y1232296D02*
D03*
Y1262061D02*
D03*
M02*
