G04*
G04 #@! TF.GenerationSoftware,Altium Limited,Altium Designer,25.6.2 (33)*
G04*
G04 Layer_Color=32896*
%FSLAX44Y44*%
%MOMM*%
G71*
G04*
G04 #@! TF.SameCoordinates,B7A76CE3-19EA-4564-99E6-97BD9BEAA24B*
G04*
G04*
G04 #@! TF.FilePolarity,Positive*
G04*
G01*
G75*
%ADD10C,0.2540*%
%ADD69C,0.2500*%
%ADD70C,0.6000*%
%ADD71C,0.2000*%
%ADD72C,0.1500*%
%ADD73R,1.5870X0.5080*%
D10*
X3533931Y1269617D02*
Y1254382D01*
X3526313D01*
X3523774Y1256922D01*
Y1259461D01*
X3526313Y1262000D01*
X3533931D01*
X3526313D01*
X3523774Y1264539D01*
Y1267078D01*
X3526313Y1269617D01*
X3533931D01*
X3511078D02*
X3516157D01*
X3518696Y1267078D01*
Y1256922D01*
X3516157Y1254382D01*
X3511078D01*
X3508539Y1256922D01*
Y1267078D01*
X3511078Y1269617D01*
X3495843D02*
X3500922D01*
X3503461Y1267078D01*
Y1256922D01*
X3500922Y1254382D01*
X3495843D01*
X3493304Y1256922D01*
Y1267078D01*
X3495843Y1269617D01*
X3488226D02*
X3478069D01*
X3483147D01*
Y1254382D01*
X236796Y188537D02*
X240128D01*
X238462D01*
Y180206D01*
X240128Y178540D01*
X241794D01*
X243460Y180206D01*
X233463Y188537D02*
Y178540D01*
X226799D01*
X216802Y186871D02*
X218468Y188537D01*
X221800D01*
X223466Y186871D01*
Y180206D01*
X221800Y178540D01*
X218468D01*
X216802Y180206D01*
X206805Y188537D02*
X210137D01*
X208471D01*
Y180206D01*
X210137Y178540D01*
X211803D01*
X213470Y180206D01*
X203473Y188537D02*
Y178540D01*
X196808D01*
X186812Y186871D02*
X188478Y188537D01*
X191810D01*
X193476Y186871D01*
Y180206D01*
X191810Y178540D01*
X188478D01*
X186812Y180206D01*
X176815Y188537D02*
X180147D01*
X178481D01*
Y180206D01*
X180147Y178540D01*
X181813D01*
X183479Y180206D01*
X173482Y188537D02*
Y178540D01*
X166818D01*
X156821Y186871D02*
X158487Y188537D01*
X161820D01*
X163486Y186871D01*
Y180206D01*
X161820Y178540D01*
X158487D01*
X156821Y180206D01*
X146825Y188537D02*
X150157D01*
X148491D01*
Y180206D01*
X150157Y178540D01*
X151823D01*
X153489Y180206D01*
X143492Y188537D02*
Y178540D01*
X136828D01*
X126831Y186871D02*
X128497Y188537D01*
X131829D01*
X133495Y186871D01*
Y180206D01*
X131829Y178540D01*
X128497D01*
X126831Y180206D01*
X3307844Y1172102D02*
Y1159406D01*
X3305305Y1156867D01*
X3300227D01*
X3297687Y1159406D01*
Y1172102D01*
X3292609Y1156867D02*
X3287531D01*
X3290070D01*
Y1172102D01*
X3292609Y1169563D01*
X3218696Y1391617D02*
Y1378922D01*
X3216157Y1376382D01*
X3211078D01*
X3208539Y1378922D01*
Y1391617D01*
X3193304Y1376382D02*
X3203461D01*
X3193304Y1386539D01*
Y1389078D01*
X3195843Y1391617D01*
X3200922D01*
X3203461Y1389078D01*
X3506696Y1284382D02*
Y1299617D01*
X3499078D01*
X3496539Y1297078D01*
Y1292000D01*
X3499078Y1289461D01*
X3506696D01*
X3501617D02*
X3496539Y1284382D01*
X3491461Y1297078D02*
X3488922Y1299617D01*
X3483843D01*
X3481304Y1297078D01*
Y1294539D01*
X3483843Y1292000D01*
X3486382D01*
X3483843D01*
X3481304Y1289461D01*
Y1286922D01*
X3483843Y1284382D01*
X3488922D01*
X3491461Y1286922D01*
X3358696Y1382383D02*
Y1397617D01*
X3351078D01*
X3348539Y1395078D01*
Y1390000D01*
X3351078Y1387461D01*
X3358696D01*
X3353618D02*
X3348539Y1382383D01*
X3333304D02*
X3343461D01*
X3333304Y1392539D01*
Y1395078D01*
X3335843Y1397617D01*
X3340922D01*
X3343461Y1395078D01*
X3482157Y1320383D02*
Y1335618D01*
X3474539D01*
X3472000Y1333078D01*
Y1328000D01*
X3474539Y1325461D01*
X3482157D01*
X3477078D02*
X3472000Y1320383D01*
X3466922D02*
X3461843D01*
X3464382D01*
Y1335618D01*
X3466922Y1333078D01*
X3410313Y1226383D02*
Y1241618D01*
X3402696D01*
X3400157Y1239078D01*
Y1234000D01*
X3402696Y1231461D01*
X3410313D01*
X3405235D02*
X3400157Y1226383D01*
X3384922Y1239078D02*
X3387461Y1241618D01*
X3392539D01*
X3395078Y1239078D01*
Y1236539D01*
X3392539Y1234000D01*
X3387461D01*
X3384922Y1231461D01*
Y1228922D01*
X3387461Y1226383D01*
X3392539D01*
X3395078Y1228922D01*
X3379843Y1241618D02*
X3369687D01*
X3374765D01*
Y1226383D01*
X3064000Y1290383D02*
X3058922D01*
X3061461D01*
Y1303078D01*
X3058922Y1305618D01*
X3056382D01*
X3053843Y1303078D01*
X3069078Y1305618D02*
X3074157D01*
X3071618D01*
Y1290383D01*
X3069078Y1292922D01*
X176313Y1423618D02*
Y1408383D01*
X168696D01*
X166157Y1410922D01*
Y1421078D01*
X168696Y1423618D01*
X176313D01*
X161078Y1421078D02*
X158539Y1423618D01*
X153461D01*
X150922Y1421078D01*
Y1418539D01*
X153461Y1416000D01*
X150922Y1413461D01*
Y1410922D01*
X153461Y1408383D01*
X158539D01*
X161078Y1410922D01*
Y1413461D01*
X158539Y1416000D01*
X161078Y1418539D01*
Y1421078D01*
X158539Y1416000D02*
X153461D01*
X135687Y1423618D02*
X140765Y1421078D01*
X145843Y1416000D01*
Y1410922D01*
X143304Y1408383D01*
X138226D01*
X135687Y1410922D01*
Y1413461D01*
X138226Y1416000D01*
X145843D01*
X3435350Y401569D02*
Y386334D01*
X3427733D01*
X3425193Y388873D01*
Y399030D01*
X3427733Y401569D01*
X3435350D01*
X3420115Y399030D02*
X3417576Y401569D01*
X3412497D01*
X3409958Y399030D01*
Y396491D01*
X3412497Y393951D01*
X3409958Y391412D01*
Y388873D01*
X3412497Y386334D01*
X3417576D01*
X3420115Y388873D01*
Y391412D01*
X3417576Y393951D01*
X3420115Y396491D01*
Y399030D01*
X3417576Y393951D02*
X3412497D01*
X3394723Y401569D02*
X3404880D01*
Y393951D01*
X3399802Y396491D01*
X3397262D01*
X3394723Y393951D01*
Y388873D01*
X3397262Y386334D01*
X3402341D01*
X3404880Y388873D01*
X3272790Y401569D02*
Y386334D01*
X3265172D01*
X3262633Y388873D01*
Y399030D01*
X3265172Y401569D01*
X3272790D01*
X3257555Y399030D02*
X3255016Y401569D01*
X3249937D01*
X3247398Y399030D01*
Y396491D01*
X3249937Y393951D01*
X3247398Y391412D01*
Y388873D01*
X3249937Y386334D01*
X3255016D01*
X3257555Y388873D01*
Y391412D01*
X3255016Y393951D01*
X3257555Y396491D01*
Y399030D01*
X3255016Y393951D02*
X3249937D01*
X3234702Y386334D02*
Y401569D01*
X3242320Y393951D01*
X3232163D01*
X3082290Y401569D02*
Y386334D01*
X3074673D01*
X3072133Y388873D01*
Y399030D01*
X3074673Y401569D01*
X3082290D01*
X3067055Y399030D02*
X3064516Y401569D01*
X3059437D01*
X3056898Y399030D01*
Y396491D01*
X3059437Y393951D01*
X3056898Y391412D01*
Y388873D01*
X3059437Y386334D01*
X3064516D01*
X3067055Y388873D01*
Y391412D01*
X3064516Y393951D01*
X3067055Y396491D01*
Y399030D01*
X3064516Y393951D02*
X3059437D01*
X3051820Y399030D02*
X3049281Y401569D01*
X3044202D01*
X3041663Y399030D01*
Y396491D01*
X3044202Y393951D01*
X3046742D01*
X3044202D01*
X3041663Y391412D01*
Y388873D01*
X3044202Y386334D01*
X3049281D01*
X3051820Y388873D01*
X2796540Y449067D02*
Y433832D01*
X2788922D01*
X2786383Y436371D01*
Y446528D01*
X2788922Y449067D01*
X2796540D01*
X2781305Y446528D02*
X2778766Y449067D01*
X2773687D01*
X2771148Y446528D01*
Y443989D01*
X2773687Y441450D01*
X2771148Y438910D01*
Y436371D01*
X2773687Y433832D01*
X2778766D01*
X2781305Y436371D01*
Y438910D01*
X2778766Y441450D01*
X2781305Y443989D01*
Y446528D01*
X2778766Y441450D02*
X2773687D01*
X2755913Y433832D02*
X2766070D01*
X2755913Y443989D01*
Y446528D01*
X2758452Y449067D01*
X2763531D01*
X2766070Y446528D01*
X2505710Y449067D02*
Y433832D01*
X2498092D01*
X2495553Y436371D01*
Y446528D01*
X2498092Y449067D01*
X2505710D01*
X2490475Y446528D02*
X2487936Y449067D01*
X2482857D01*
X2480318Y446528D01*
Y443989D01*
X2482857Y441450D01*
X2480318Y438910D01*
Y436371D01*
X2482857Y433832D01*
X2487936D01*
X2490475Y436371D01*
Y438910D01*
X2487936Y441450D01*
X2490475Y443989D01*
Y446528D01*
X2487936Y441450D02*
X2482857D01*
X2475240Y433832D02*
X2470161D01*
X2472701D01*
Y449067D01*
X2475240Y446528D01*
X1772412Y449067D02*
Y433832D01*
X1764794D01*
X1762255Y436371D01*
Y446528D01*
X1764794Y449067D01*
X1772412D01*
X1757177Y446528D02*
X1754638Y449067D01*
X1749559D01*
X1747020Y446528D01*
Y443989D01*
X1749559Y441450D01*
X1747020Y438910D01*
Y436371D01*
X1749559Y433832D01*
X1754638D01*
X1757177Y436371D01*
Y438910D01*
X1754638Y441450D01*
X1757177Y443989D01*
Y446528D01*
X1754638Y441450D02*
X1749559D01*
X1741942Y446528D02*
X1739403Y449067D01*
X1734324D01*
X1731785Y446528D01*
Y436371D01*
X1734324Y433832D01*
X1739403D01*
X1741942Y436371D01*
Y446528D01*
X1058164Y449067D02*
Y433832D01*
X1050546D01*
X1048007Y436371D01*
Y446528D01*
X1050546Y449067D01*
X1058164D01*
X1042929D02*
X1032772D01*
Y446528D01*
X1042929Y436371D01*
Y433832D01*
X1027694Y436371D02*
X1025155Y433832D01*
X1020076D01*
X1017537Y436371D01*
Y446528D01*
X1020076Y449067D01*
X1025155D01*
X1027694Y446528D01*
Y443989D01*
X1025155Y441450D01*
X1017537D01*
X819912Y449067D02*
Y433832D01*
X812294D01*
X809755Y436371D01*
Y446528D01*
X812294Y449067D01*
X819912D01*
X804677D02*
X794520D01*
Y446528D01*
X804677Y436371D01*
Y433832D01*
X789442Y446528D02*
X786903Y449067D01*
X781824D01*
X779285Y446528D01*
Y443989D01*
X781824Y441450D01*
X779285Y438910D01*
Y436371D01*
X781824Y433832D01*
X786903D01*
X789442Y436371D01*
Y438910D01*
X786903Y441450D01*
X789442Y443989D01*
Y446528D01*
X786903Y441450D02*
X781824D01*
X581914Y449067D02*
Y433832D01*
X574296D01*
X571757Y436371D01*
Y446528D01*
X574296Y449067D01*
X581914D01*
X566679D02*
X556522D01*
Y446528D01*
X566679Y436371D01*
Y433832D01*
X551444Y449067D02*
X541287D01*
Y446528D01*
X551444Y436371D01*
Y433832D01*
X320040Y449067D02*
Y433832D01*
X312423D01*
X309883Y436371D01*
Y446528D01*
X312423Y449067D01*
X320040D01*
X304805D02*
X294648D01*
Y446528D01*
X304805Y436371D01*
Y433832D01*
X279413Y449067D02*
X284492Y446528D01*
X289570Y441450D01*
Y436371D01*
X287031Y433832D01*
X281952D01*
X279413Y436371D01*
Y438910D01*
X281952Y441450D01*
X289570D01*
X3510788Y639567D02*
Y624332D01*
X3503170D01*
X3500631Y626871D01*
Y637028D01*
X3503170Y639567D01*
X3510788D01*
X3495553D02*
X3485396D01*
Y637028D01*
X3495553Y626871D01*
Y624332D01*
X3470161Y639567D02*
X3480318D01*
Y631950D01*
X3475240Y634489D01*
X3472700D01*
X3470161Y631950D01*
Y626871D01*
X3472700Y624332D01*
X3477779D01*
X3480318Y626871D01*
X3272790Y592069D02*
Y576834D01*
X3265172D01*
X3262633Y579373D01*
Y589530D01*
X3265172Y592069D01*
X3272790D01*
X3257555D02*
X3247398D01*
Y589530D01*
X3257555Y579373D01*
Y576834D01*
X3234702D02*
Y592069D01*
X3242320Y584451D01*
X3232163D01*
X2963164Y639567D02*
Y624332D01*
X2955547D01*
X2953007Y626871D01*
Y637028D01*
X2955547Y639567D01*
X2963164D01*
X2947929D02*
X2937772D01*
Y637028D01*
X2947929Y626871D01*
Y624332D01*
X2932694Y637028D02*
X2930155Y639567D01*
X2925076D01*
X2922537Y637028D01*
Y634489D01*
X2925076Y631950D01*
X2927615D01*
X2925076D01*
X2922537Y629410D01*
Y626871D01*
X2925076Y624332D01*
X2930155D01*
X2932694Y626871D01*
X2701290Y639567D02*
Y624332D01*
X2693672D01*
X2691133Y626871D01*
Y637028D01*
X2693672Y639567D01*
X2701290D01*
X2686055D02*
X2675898D01*
Y637028D01*
X2686055Y626871D01*
Y624332D01*
X2660663D02*
X2670820D01*
X2660663Y634489D01*
Y637028D01*
X2663202Y639567D01*
X2668281D01*
X2670820Y637028D01*
X2505710Y639567D02*
Y624332D01*
X2498092D01*
X2495553Y626871D01*
Y637028D01*
X2498092Y639567D01*
X2505710D01*
X2490475D02*
X2480318D01*
Y637028D01*
X2490475Y626871D01*
Y624332D01*
X2475240D02*
X2470161D01*
X2472701D01*
Y639567D01*
X2475240Y637028D01*
X2320290Y639567D02*
Y624332D01*
X2312672D01*
X2310133Y626871D01*
Y637028D01*
X2312672Y639567D01*
X2320290D01*
X2305055D02*
X2294898D01*
Y637028D01*
X2305055Y626871D01*
Y624332D01*
X2289820Y637028D02*
X2287281Y639567D01*
X2282202D01*
X2279663Y637028D01*
Y626871D01*
X2282202Y624332D01*
X2287281D01*
X2289820Y626871D01*
Y637028D01*
X2129790Y639567D02*
Y624332D01*
X2122173D01*
X2119633Y626871D01*
Y637028D01*
X2122173Y639567D01*
X2129790D01*
X2104398D02*
X2109477Y637028D01*
X2114555Y631950D01*
Y626871D01*
X2112016Y624332D01*
X2106937D01*
X2104398Y626871D01*
Y629410D01*
X2106937Y631950D01*
X2114555D01*
X2099320Y626871D02*
X2096781Y624332D01*
X2091702D01*
X2089163Y626871D01*
Y637028D01*
X2091702Y639567D01*
X2096781D01*
X2099320Y637028D01*
Y634489D01*
X2096781Y631950D01*
X2089163D01*
X1939290Y639567D02*
Y624332D01*
X1931673D01*
X1929133Y626871D01*
Y637028D01*
X1931673Y639567D01*
X1939290D01*
X1913898D02*
X1918977Y637028D01*
X1924055Y631950D01*
Y626871D01*
X1921516Y624332D01*
X1916437D01*
X1913898Y626871D01*
Y629410D01*
X1916437Y631950D01*
X1924055D01*
X1908820Y637028D02*
X1906281Y639567D01*
X1901202D01*
X1898663Y637028D01*
Y634489D01*
X1901202Y631950D01*
X1898663Y629410D01*
Y626871D01*
X1901202Y624332D01*
X1906281D01*
X1908820Y626871D01*
Y629410D01*
X1906281Y631950D01*
X1908820Y634489D01*
Y637028D01*
X1906281Y631950D02*
X1901202D01*
X1748790Y639567D02*
Y624332D01*
X1741172D01*
X1738633Y626871D01*
Y637028D01*
X1741172Y639567D01*
X1748790D01*
X1723398D02*
X1728477Y637028D01*
X1733555Y631950D01*
Y626871D01*
X1731016Y624332D01*
X1725937D01*
X1723398Y626871D01*
Y629410D01*
X1725937Y631950D01*
X1733555D01*
X1718320Y639567D02*
X1708163D01*
Y637028D01*
X1718320Y626871D01*
Y624332D01*
X1558290Y639567D02*
Y624332D01*
X1550672D01*
X1548133Y626871D01*
Y637028D01*
X1550672Y639567D01*
X1558290D01*
X1532898D02*
X1537977Y637028D01*
X1543055Y631950D01*
Y626871D01*
X1540516Y624332D01*
X1535437D01*
X1532898Y626871D01*
Y629410D01*
X1535437Y631950D01*
X1543055D01*
X1517663Y639567D02*
X1522742Y637028D01*
X1527820Y631950D01*
Y626871D01*
X1525281Y624332D01*
X1520202D01*
X1517663Y626871D01*
Y629410D01*
X1520202Y631950D01*
X1527820D01*
X1367790Y639567D02*
Y624332D01*
X1360172D01*
X1357633Y626871D01*
Y637028D01*
X1360172Y639567D01*
X1367790D01*
X1342398D02*
X1347477Y637028D01*
X1352555Y631950D01*
Y626871D01*
X1350016Y624332D01*
X1344937D01*
X1342398Y626871D01*
Y629410D01*
X1344937Y631950D01*
X1352555D01*
X1327163Y639567D02*
X1337320D01*
Y631950D01*
X1332242Y634489D01*
X1329702D01*
X1327163Y631950D01*
Y626871D01*
X1329702Y624332D01*
X1334781D01*
X1337320Y626871D01*
X1177290Y639567D02*
Y624332D01*
X1169672D01*
X1167133Y626871D01*
Y637028D01*
X1169672Y639567D01*
X1177290D01*
X1151898D02*
X1156977Y637028D01*
X1162055Y631950D01*
Y626871D01*
X1159516Y624332D01*
X1154437D01*
X1151898Y626871D01*
Y629410D01*
X1154437Y631950D01*
X1162055D01*
X1139202Y624332D02*
Y639567D01*
X1146820Y631950D01*
X1136663D01*
X986790Y639567D02*
Y624332D01*
X979173D01*
X976633Y626871D01*
Y637028D01*
X979173Y639567D01*
X986790D01*
X961398D02*
X966477Y637028D01*
X971555Y631950D01*
Y626871D01*
X969016Y624332D01*
X963937D01*
X961398Y626871D01*
Y629410D01*
X963937Y631950D01*
X971555D01*
X956320Y637028D02*
X953781Y639567D01*
X948702D01*
X946163Y637028D01*
Y634489D01*
X948702Y631950D01*
X951242D01*
X948702D01*
X946163Y629410D01*
Y626871D01*
X948702Y624332D01*
X953781D01*
X956320Y626871D01*
X675157Y638649D02*
Y623414D01*
X667540D01*
X665000Y625953D01*
Y636110D01*
X667540Y638649D01*
X675157D01*
X649765D02*
X654844Y636110D01*
X659922Y631031D01*
Y625953D01*
X657383Y623414D01*
X652305D01*
X649765Y625953D01*
Y628492D01*
X652305Y631031D01*
X659922D01*
X634530Y623414D02*
X644687D01*
X634530Y633570D01*
Y636110D01*
X637070Y638649D01*
X642148D01*
X644687Y636110D01*
X314960Y639567D02*
Y624332D01*
X307342D01*
X304803Y626871D01*
Y637028D01*
X307342Y639567D01*
X314960D01*
X289568D02*
X294647Y637028D01*
X299725Y631950D01*
Y626871D01*
X297186Y624332D01*
X292107D01*
X289568Y626871D01*
Y629410D01*
X292107Y631950D01*
X299725D01*
X284490Y624332D02*
X279412D01*
X281951D01*
Y639567D01*
X284490Y637028D01*
X3510788Y830067D02*
Y814832D01*
X3503170D01*
X3500631Y817371D01*
Y827528D01*
X3503170Y830067D01*
X3510788D01*
X3485396D02*
X3490475Y827528D01*
X3495553Y822449D01*
Y817371D01*
X3493014Y814832D01*
X3487935D01*
X3485396Y817371D01*
Y819910D01*
X3487935Y822449D01*
X3495553D01*
X3480318Y827528D02*
X3477779Y830067D01*
X3472700D01*
X3470161Y827528D01*
Y817371D01*
X3472700Y814832D01*
X3477779D01*
X3480318Y817371D01*
Y827528D01*
X3104032Y832992D02*
Y817757D01*
X3096415D01*
X3093875Y820297D01*
Y830453D01*
X3096415Y832992D01*
X3104032D01*
X3078640D02*
X3088797D01*
Y825375D01*
X3083719Y827914D01*
X3081180D01*
X3078640Y825375D01*
Y820297D01*
X3081180Y817757D01*
X3086258D01*
X3088797Y820297D01*
X3073562D02*
X3071023Y817757D01*
X3065945D01*
X3063405Y820297D01*
Y830453D01*
X3065945Y832992D01*
X3071023D01*
X3073562Y830453D01*
Y827914D01*
X3071023Y825375D01*
X3063405D01*
X2796540Y830067D02*
Y814832D01*
X2788922D01*
X2786383Y817371D01*
Y827528D01*
X2788922Y830067D01*
X2796540D01*
X2771148D02*
X2781305D01*
Y822449D01*
X2776227Y824989D01*
X2773687D01*
X2771148Y822449D01*
Y817371D01*
X2773687Y814832D01*
X2778766D01*
X2781305Y817371D01*
X2766070Y827528D02*
X2763531Y830067D01*
X2758452D01*
X2755913Y827528D01*
Y824989D01*
X2758452Y822449D01*
X2755913Y819910D01*
Y817371D01*
X2758452Y814832D01*
X2763531D01*
X2766070Y817371D01*
Y819910D01*
X2763531Y822449D01*
X2766070Y824989D01*
Y827528D01*
X2763531Y822449D02*
X2758452D01*
X2606040Y830067D02*
Y814832D01*
X2598423D01*
X2595883Y817371D01*
Y827528D01*
X2598423Y830067D01*
X2606040D01*
X2580648D02*
X2590805D01*
Y822449D01*
X2585727Y824989D01*
X2583187D01*
X2580648Y822449D01*
Y817371D01*
X2583187Y814832D01*
X2588266D01*
X2590805Y817371D01*
X2575570Y830067D02*
X2565413D01*
Y827528D01*
X2575570Y817371D01*
Y814832D01*
X2415540Y830067D02*
Y814832D01*
X2407923D01*
X2405383Y817371D01*
Y827528D01*
X2407923Y830067D01*
X2415540D01*
X2390148D02*
X2400305D01*
Y822449D01*
X2395227Y824989D01*
X2392687D01*
X2390148Y822449D01*
Y817371D01*
X2392687Y814832D01*
X2397766D01*
X2400305Y817371D01*
X2374913Y830067D02*
X2379991Y827528D01*
X2385070Y822449D01*
Y817371D01*
X2382531Y814832D01*
X2377452D01*
X2374913Y817371D01*
Y819910D01*
X2377452Y822449D01*
X2385070D01*
X2225040Y830067D02*
Y814832D01*
X2217422D01*
X2214883Y817371D01*
Y827528D01*
X2217422Y830067D01*
X2225040D01*
X2199648D02*
X2209805D01*
Y822449D01*
X2204727Y824989D01*
X2202187D01*
X2199648Y822449D01*
Y817371D01*
X2202187Y814832D01*
X2207266D01*
X2209805Y817371D01*
X2184413Y830067D02*
X2194570D01*
Y822449D01*
X2189491Y824989D01*
X2186952D01*
X2184413Y822449D01*
Y817371D01*
X2186952Y814832D01*
X2192031D01*
X2194570Y817371D01*
X2034540Y830067D02*
Y814832D01*
X2026922D01*
X2024383Y817371D01*
Y827528D01*
X2026922Y830067D01*
X2034540D01*
X2009148D02*
X2019305D01*
Y822449D01*
X2014227Y824989D01*
X2011687D01*
X2009148Y822449D01*
Y817371D01*
X2011687Y814832D01*
X2016766D01*
X2019305Y817371D01*
X1996452Y814832D02*
Y830067D01*
X2004070Y822449D01*
X1993913D01*
X1844040Y830067D02*
Y814832D01*
X1836422D01*
X1833883Y817371D01*
Y827528D01*
X1836422Y830067D01*
X1844040D01*
X1818648D02*
X1828805D01*
Y822449D01*
X1823727Y824989D01*
X1821187D01*
X1818648Y822449D01*
Y817371D01*
X1821187Y814832D01*
X1826266D01*
X1828805Y817371D01*
X1813570Y827528D02*
X1811031Y830067D01*
X1805952D01*
X1803413Y827528D01*
Y824989D01*
X1805952Y822449D01*
X1808492D01*
X1805952D01*
X1803413Y819910D01*
Y817371D01*
X1805952Y814832D01*
X1811031D01*
X1813570Y817371D01*
X1653540Y830067D02*
Y814832D01*
X1645923D01*
X1643383Y817371D01*
Y827528D01*
X1645923Y830067D01*
X1653540D01*
X1628148D02*
X1638305D01*
Y822449D01*
X1633227Y824989D01*
X1630687D01*
X1628148Y822449D01*
Y817371D01*
X1630687Y814832D01*
X1635766D01*
X1638305Y817371D01*
X1612913Y814832D02*
X1623070D01*
X1612913Y824989D01*
Y827528D01*
X1615452Y830067D01*
X1620531D01*
X1623070Y827528D01*
X1457960Y830067D02*
Y814832D01*
X1450343D01*
X1447803Y817371D01*
Y827528D01*
X1450343Y830067D01*
X1457960D01*
X1432568D02*
X1442725D01*
Y822449D01*
X1437647Y824989D01*
X1435107D01*
X1432568Y822449D01*
Y817371D01*
X1435107Y814832D01*
X1440186D01*
X1442725Y817371D01*
X1427490Y814832D02*
X1422411D01*
X1424951D01*
Y830067D01*
X1427490Y827528D01*
X1272540Y830067D02*
Y814832D01*
X1264922D01*
X1262383Y817371D01*
Y827528D01*
X1264922Y830067D01*
X1272540D01*
X1247148D02*
X1257305D01*
Y822449D01*
X1252227Y824989D01*
X1249687D01*
X1247148Y822449D01*
Y817371D01*
X1249687Y814832D01*
X1254766D01*
X1257305Y817371D01*
X1242070Y827528D02*
X1239531Y830067D01*
X1234452D01*
X1231913Y827528D01*
Y817371D01*
X1234452Y814832D01*
X1239531D01*
X1242070Y817371D01*
Y827528D01*
X1082040Y830067D02*
Y814832D01*
X1074423D01*
X1071883Y817371D01*
Y827528D01*
X1074423Y830067D01*
X1082040D01*
X1059187Y814832D02*
Y830067D01*
X1066805Y822449D01*
X1056648D01*
X1051570Y817371D02*
X1049031Y814832D01*
X1043952D01*
X1041413Y817371D01*
Y827528D01*
X1043952Y830067D01*
X1049031D01*
X1051570Y827528D01*
Y824989D01*
X1049031Y822449D01*
X1041413D01*
X891540Y830067D02*
Y814832D01*
X883923D01*
X881383Y817371D01*
Y827528D01*
X883923Y830067D01*
X891540D01*
X868687Y814832D02*
Y830067D01*
X876305Y822449D01*
X866148D01*
X861070Y827528D02*
X858531Y830067D01*
X853452D01*
X850913Y827528D01*
Y824989D01*
X853452Y822449D01*
X850913Y819910D01*
Y817371D01*
X853452Y814832D01*
X858531D01*
X861070Y817371D01*
Y819910D01*
X858531Y822449D01*
X861070Y824989D01*
Y827528D01*
X858531Y822449D02*
X853452D01*
X629412Y830067D02*
Y814832D01*
X621795D01*
X619255Y817371D01*
Y827528D01*
X621795Y830067D01*
X629412D01*
X606559Y814832D02*
Y830067D01*
X614177Y822449D01*
X604020D01*
X598942Y830067D02*
X588785D01*
Y827528D01*
X598942Y817371D01*
Y814832D01*
X320040Y830067D02*
Y814832D01*
X312423D01*
X309883Y817371D01*
Y827528D01*
X312423Y830067D01*
X320040D01*
X297187Y814832D02*
Y830067D01*
X304805Y822449D01*
X294648D01*
X279413Y830067D02*
X284492Y827528D01*
X289570Y822449D01*
Y817371D01*
X287031Y814832D01*
X281952D01*
X279413Y817371D01*
Y819910D01*
X281952Y822449D01*
X289570D01*
X3510788Y1020567D02*
Y1005332D01*
X3503170D01*
X3500631Y1007871D01*
Y1018028D01*
X3503170Y1020567D01*
X3510788D01*
X3487935Y1005332D02*
Y1020567D01*
X3495553Y1012950D01*
X3485396D01*
X3470161Y1020567D02*
X3480318D01*
Y1012950D01*
X3475240Y1015489D01*
X3472700D01*
X3470161Y1012950D01*
Y1007871D01*
X3472700Y1005332D01*
X3477779D01*
X3480318Y1007871D01*
X3189224Y985007D02*
Y969772D01*
X3181606D01*
X3179067Y972311D01*
Y982468D01*
X3181606Y985007D01*
X3189224D01*
X3166371Y969772D02*
Y985007D01*
X3173989Y977390D01*
X3163832D01*
X3151136Y969772D02*
Y985007D01*
X3158754Y977390D01*
X3148597D01*
X2951226Y985007D02*
Y969772D01*
X2943608D01*
X2941069Y972311D01*
Y982468D01*
X2943608Y985007D01*
X2951226D01*
X2928373Y969772D02*
Y985007D01*
X2935991Y977390D01*
X2925834D01*
X2920756Y982468D02*
X2918217Y985007D01*
X2913138D01*
X2910599Y982468D01*
Y979929D01*
X2913138Y977390D01*
X2915677D01*
X2913138D01*
X2910599Y974850D01*
Y972311D01*
X2913138Y969772D01*
X2918217D01*
X2920756Y972311D01*
X2748788Y1020567D02*
Y1005332D01*
X2741170D01*
X2738631Y1007871D01*
Y1018028D01*
X2741170Y1020567D01*
X2748788D01*
X2725935Y1005332D02*
Y1020567D01*
X2733553Y1012950D01*
X2723396D01*
X2708161Y1005332D02*
X2718318D01*
X2708161Y1015489D01*
Y1018028D01*
X2710700Y1020567D01*
X2715779D01*
X2718318Y1018028D01*
X2553208Y1020567D02*
Y1005332D01*
X2545591D01*
X2543051Y1007871D01*
Y1018028D01*
X2545591Y1020567D01*
X2553208D01*
X2530355Y1005332D02*
Y1020567D01*
X2537973Y1012950D01*
X2527816D01*
X2522738Y1005332D02*
X2517659D01*
X2520199D01*
Y1020567D01*
X2522738Y1018028D01*
X2367788Y1020567D02*
Y1005332D01*
X2360170D01*
X2357631Y1007871D01*
Y1018028D01*
X2360170Y1020567D01*
X2367788D01*
X2344935Y1005332D02*
Y1020567D01*
X2352553Y1012950D01*
X2342396D01*
X2337318Y1018028D02*
X2334779Y1020567D01*
X2329700D01*
X2327161Y1018028D01*
Y1007871D01*
X2329700Y1005332D01*
X2334779D01*
X2337318Y1007871D01*
Y1018028D01*
X2177288Y1020567D02*
Y1005332D01*
X2169671D01*
X2167131Y1007871D01*
Y1018028D01*
X2169671Y1020567D01*
X2177288D01*
X2162053Y1018028D02*
X2159514Y1020567D01*
X2154435D01*
X2151896Y1018028D01*
Y1015489D01*
X2154435Y1012950D01*
X2156975D01*
X2154435D01*
X2151896Y1010410D01*
Y1007871D01*
X2154435Y1005332D01*
X2159514D01*
X2162053Y1007871D01*
X2146818D02*
X2144279Y1005332D01*
X2139200D01*
X2136661Y1007871D01*
Y1018028D01*
X2139200Y1020567D01*
X2144279D01*
X2146818Y1018028D01*
Y1015489D01*
X2144279Y1012950D01*
X2136661D01*
X1986788Y1020567D02*
Y1005332D01*
X1979171D01*
X1976631Y1007871D01*
Y1018028D01*
X1979171Y1020567D01*
X1986788D01*
X1971553Y1018028D02*
X1969014Y1020567D01*
X1963935D01*
X1961396Y1018028D01*
Y1015489D01*
X1963935Y1012950D01*
X1966475D01*
X1963935D01*
X1961396Y1010410D01*
Y1007871D01*
X1963935Y1005332D01*
X1969014D01*
X1971553Y1007871D01*
X1956318Y1018028D02*
X1953779Y1020567D01*
X1948700D01*
X1946161Y1018028D01*
Y1015489D01*
X1948700Y1012950D01*
X1946161Y1010410D01*
Y1007871D01*
X1948700Y1005332D01*
X1953779D01*
X1956318Y1007871D01*
Y1010410D01*
X1953779Y1012950D01*
X1956318Y1015489D01*
Y1018028D01*
X1953779Y1012950D02*
X1948700D01*
X1796288Y1020567D02*
Y1005332D01*
X1788671D01*
X1786131Y1007871D01*
Y1018028D01*
X1788671Y1020567D01*
X1796288D01*
X1781053Y1018028D02*
X1778514Y1020567D01*
X1773435D01*
X1770896Y1018028D01*
Y1015489D01*
X1773435Y1012950D01*
X1775975D01*
X1773435D01*
X1770896Y1010410D01*
Y1007871D01*
X1773435Y1005332D01*
X1778514D01*
X1781053Y1007871D01*
X1765818Y1020567D02*
X1755661D01*
Y1018028D01*
X1765818Y1007871D01*
Y1005332D01*
X1605788Y1020567D02*
Y1005332D01*
X1598170D01*
X1595631Y1007871D01*
Y1018028D01*
X1598170Y1020567D01*
X1605788D01*
X1590553Y1018028D02*
X1588014Y1020567D01*
X1582935D01*
X1580396Y1018028D01*
Y1015489D01*
X1582935Y1012950D01*
X1585475D01*
X1582935D01*
X1580396Y1010410D01*
Y1007871D01*
X1582935Y1005332D01*
X1588014D01*
X1590553Y1007871D01*
X1565161Y1020567D02*
X1570240Y1018028D01*
X1575318Y1012950D01*
Y1007871D01*
X1572779Y1005332D01*
X1567700D01*
X1565161Y1007871D01*
Y1010410D01*
X1567700Y1012950D01*
X1575318D01*
X1415288Y1020567D02*
Y1005332D01*
X1407670D01*
X1405131Y1007871D01*
Y1018028D01*
X1407670Y1020567D01*
X1415288D01*
X1400053Y1018028D02*
X1397514Y1020567D01*
X1392435D01*
X1389896Y1018028D01*
Y1015489D01*
X1392435Y1012950D01*
X1394975D01*
X1392435D01*
X1389896Y1010410D01*
Y1007871D01*
X1392435Y1005332D01*
X1397514D01*
X1400053Y1007871D01*
X1374661Y1020567D02*
X1384818D01*
Y1012950D01*
X1379740Y1015489D01*
X1377200D01*
X1374661Y1012950D01*
Y1007871D01*
X1377200Y1005332D01*
X1382279D01*
X1384818Y1007871D01*
X1224788Y1020567D02*
Y1005332D01*
X1217170D01*
X1214631Y1007871D01*
Y1018028D01*
X1217170Y1020567D01*
X1224788D01*
X1209553Y1018028D02*
X1207014Y1020567D01*
X1201935D01*
X1199396Y1018028D01*
Y1015489D01*
X1201935Y1012950D01*
X1204475D01*
X1201935D01*
X1199396Y1010410D01*
Y1007871D01*
X1201935Y1005332D01*
X1207014D01*
X1209553Y1007871D01*
X1186700Y1005332D02*
Y1020567D01*
X1194318Y1012950D01*
X1184161D01*
X1034288Y1020567D02*
Y1005332D01*
X1026671D01*
X1024131Y1007871D01*
Y1018028D01*
X1026671Y1020567D01*
X1034288D01*
X1019053Y1018028D02*
X1016514Y1020567D01*
X1011435D01*
X1008896Y1018028D01*
Y1015489D01*
X1011435Y1012950D01*
X1013975D01*
X1011435D01*
X1008896Y1010410D01*
Y1007871D01*
X1011435Y1005332D01*
X1016514D01*
X1019053Y1007871D01*
X1003818Y1018028D02*
X1001279Y1020567D01*
X996200D01*
X993661Y1018028D01*
Y1015489D01*
X996200Y1012950D01*
X998739D01*
X996200D01*
X993661Y1010410D01*
Y1007871D01*
X996200Y1005332D01*
X1001279D01*
X1003818Y1007871D01*
X843788Y1020567D02*
Y1005332D01*
X836171D01*
X833631Y1007871D01*
Y1018028D01*
X836171Y1020567D01*
X843788D01*
X828553Y1018028D02*
X826014Y1020567D01*
X820935D01*
X818396Y1018028D01*
Y1015489D01*
X820935Y1012950D01*
X823475D01*
X820935D01*
X818396Y1010410D01*
Y1007871D01*
X820935Y1005332D01*
X826014D01*
X828553Y1007871D01*
X803161Y1005332D02*
X813318D01*
X803161Y1015489D01*
Y1018028D01*
X805700Y1020567D01*
X810779D01*
X813318Y1018028D01*
X577850Y1020567D02*
Y1005332D01*
X570233D01*
X567693Y1007871D01*
Y1018028D01*
X570233Y1020567D01*
X577850D01*
X562615Y1018028D02*
X560076Y1020567D01*
X554997D01*
X552458Y1018028D01*
Y1015489D01*
X554997Y1012950D01*
X557537D01*
X554997D01*
X552458Y1010410D01*
Y1007871D01*
X554997Y1005332D01*
X560076D01*
X562615Y1007871D01*
X547380Y1005332D02*
X542301D01*
X544841D01*
Y1020567D01*
X547380Y1018028D01*
X292100Y1020567D02*
Y1005332D01*
X284482D01*
X281943Y1007871D01*
Y1018028D01*
X284482Y1020567D01*
X292100D01*
X276865Y1018028D02*
X274326Y1020567D01*
X269247D01*
X266708Y1018028D01*
Y1015489D01*
X269247Y1012950D01*
X271787D01*
X269247D01*
X266708Y1010410D01*
Y1007871D01*
X269247Y1005332D01*
X274326D01*
X276865Y1007871D01*
X261630Y1018028D02*
X259091Y1020567D01*
X254012D01*
X251473Y1018028D01*
Y1007871D01*
X254012Y1005332D01*
X259091D01*
X261630Y1007871D01*
Y1018028D01*
X3510788Y1211067D02*
Y1195832D01*
X3503170D01*
X3500631Y1198371D01*
Y1208528D01*
X3503170Y1211067D01*
X3510788D01*
X3485396Y1195832D02*
X3495553D01*
X3485396Y1205989D01*
Y1208528D01*
X3487935Y1211067D01*
X3493014D01*
X3495553Y1208528D01*
X3480318Y1198371D02*
X3477779Y1195832D01*
X3472700D01*
X3470161Y1198371D01*
Y1208528D01*
X3472700Y1211067D01*
X3477779D01*
X3480318Y1208528D01*
Y1205989D01*
X3477779Y1203449D01*
X3470161D01*
X3129788Y1211067D02*
Y1195832D01*
X3122170D01*
X3119631Y1198371D01*
Y1208528D01*
X3122170Y1211067D01*
X3129788D01*
X3104396Y1195832D02*
X3114553D01*
X3104396Y1205989D01*
Y1208528D01*
X3106935Y1211067D01*
X3112014D01*
X3114553Y1208528D01*
X3099318D02*
X3096779Y1211067D01*
X3091700D01*
X3089161Y1208528D01*
Y1205989D01*
X3091700Y1203449D01*
X3089161Y1200910D01*
Y1198371D01*
X3091700Y1195832D01*
X3096779D01*
X3099318Y1198371D01*
Y1200910D01*
X3096779Y1203449D01*
X3099318Y1205989D01*
Y1208528D01*
X3096779Y1203449D02*
X3091700D01*
X2844038Y1211067D02*
Y1195832D01*
X2836421D01*
X2833881Y1198371D01*
Y1208528D01*
X2836421Y1211067D01*
X2844038D01*
X2818646Y1195832D02*
X2828803D01*
X2818646Y1205989D01*
Y1208528D01*
X2821185Y1211067D01*
X2826264D01*
X2828803Y1208528D01*
X2813568Y1211067D02*
X2803411D01*
Y1208528D01*
X2813568Y1198371D01*
Y1195832D01*
X2653538Y1211067D02*
Y1195832D01*
X2645920D01*
X2643381Y1198371D01*
Y1208528D01*
X2645920Y1211067D01*
X2653538D01*
X2628146Y1195832D02*
X2638303D01*
X2628146Y1205989D01*
Y1208528D01*
X2630685Y1211067D01*
X2635764D01*
X2638303Y1208528D01*
X2612911Y1211067D02*
X2617990Y1208528D01*
X2623068Y1203449D01*
Y1198371D01*
X2620529Y1195832D01*
X2615450D01*
X2612911Y1198371D01*
Y1200910D01*
X2615450Y1203449D01*
X2623068D01*
X2463038Y1211067D02*
Y1195832D01*
X2455421D01*
X2452881Y1198371D01*
Y1208528D01*
X2455421Y1211067D01*
X2463038D01*
X2437646Y1195832D02*
X2447803D01*
X2437646Y1205989D01*
Y1208528D01*
X2440185Y1211067D01*
X2445264D01*
X2447803Y1208528D01*
X2422411Y1211067D02*
X2432568D01*
Y1203449D01*
X2427489Y1205989D01*
X2424950D01*
X2422411Y1203449D01*
Y1198371D01*
X2424950Y1195832D01*
X2430029D01*
X2432568Y1198371D01*
X2272538Y1211067D02*
Y1195832D01*
X2264921D01*
X2262381Y1198371D01*
Y1208528D01*
X2264921Y1211067D01*
X2272538D01*
X2247146Y1195832D02*
X2257303D01*
X2247146Y1205989D01*
Y1208528D01*
X2249685Y1211067D01*
X2254764D01*
X2257303Y1208528D01*
X2234450Y1195832D02*
Y1211067D01*
X2242068Y1203449D01*
X2231911D01*
X2082038Y1211067D02*
Y1195832D01*
X2074420D01*
X2071881Y1198371D01*
Y1208528D01*
X2074420Y1211067D01*
X2082038D01*
X2056646Y1195832D02*
X2066803D01*
X2056646Y1205989D01*
Y1208528D01*
X2059185Y1211067D01*
X2064264D01*
X2066803Y1208528D01*
X2051568D02*
X2049029Y1211067D01*
X2043950D01*
X2041411Y1208528D01*
Y1205989D01*
X2043950Y1203449D01*
X2046490D01*
X2043950D01*
X2041411Y1200910D01*
Y1198371D01*
X2043950Y1195832D01*
X2049029D01*
X2051568Y1198371D01*
X1891538Y1211067D02*
Y1195832D01*
X1883920D01*
X1881381Y1198371D01*
Y1208528D01*
X1883920Y1211067D01*
X1891538D01*
X1866146Y1195832D02*
X1876303D01*
X1866146Y1205989D01*
Y1208528D01*
X1868685Y1211067D01*
X1873764D01*
X1876303Y1208528D01*
X1850911Y1195832D02*
X1861068D01*
X1850911Y1205989D01*
Y1208528D01*
X1853450Y1211067D01*
X1858529D01*
X1861068Y1208528D01*
X1695958Y1211067D02*
Y1195832D01*
X1688340D01*
X1685801Y1198371D01*
Y1208528D01*
X1688340Y1211067D01*
X1695958D01*
X1670566Y1195832D02*
X1680723D01*
X1670566Y1205989D01*
Y1208528D01*
X1673105Y1211067D01*
X1678184D01*
X1680723Y1208528D01*
X1665488Y1195832D02*
X1660410D01*
X1662949D01*
Y1211067D01*
X1665488Y1208528D01*
X1510538Y1211067D02*
Y1195832D01*
X1502921D01*
X1500381Y1198371D01*
Y1208528D01*
X1502921Y1211067D01*
X1510538D01*
X1485146Y1195832D02*
X1495303D01*
X1485146Y1205989D01*
Y1208528D01*
X1487685Y1211067D01*
X1492764D01*
X1495303Y1208528D01*
X1480068D02*
X1477529Y1211067D01*
X1472450D01*
X1469911Y1208528D01*
Y1198371D01*
X1472450Y1195832D01*
X1477529D01*
X1480068Y1198371D01*
Y1208528D01*
X1317498Y1211101D02*
Y1195866D01*
X1309881D01*
X1307341Y1198405D01*
Y1208562D01*
X1309881Y1211101D01*
X1317498D01*
X1302263Y1195866D02*
X1297185D01*
X1299724D01*
Y1211101D01*
X1302263Y1208562D01*
X1289567Y1198405D02*
X1287028Y1195866D01*
X1281949D01*
X1279410Y1198405D01*
Y1208562D01*
X1281949Y1211101D01*
X1287028D01*
X1289567Y1208562D01*
Y1206022D01*
X1287028Y1203483D01*
X1279410D01*
X1126998Y1211067D02*
Y1195832D01*
X1119380D01*
X1116841Y1198371D01*
Y1208528D01*
X1119380Y1211067D01*
X1126998D01*
X1111763Y1195832D02*
X1106685D01*
X1109224D01*
Y1211067D01*
X1111763Y1208528D01*
X1099067D02*
X1096528Y1211067D01*
X1091450D01*
X1088910Y1208528D01*
Y1205989D01*
X1091450Y1203449D01*
X1088910Y1200910D01*
Y1198371D01*
X1091450Y1195832D01*
X1096528D01*
X1099067Y1198371D01*
Y1200910D01*
X1096528Y1203449D01*
X1099067Y1205989D01*
Y1208528D01*
X1096528Y1203449D02*
X1091450D01*
X936498Y1211067D02*
Y1195832D01*
X928880D01*
X926341Y1198371D01*
Y1208528D01*
X928880Y1211067D01*
X936498D01*
X921263Y1195832D02*
X916185D01*
X918724D01*
Y1211067D01*
X921263Y1208528D01*
X908567Y1211067D02*
X898410D01*
Y1208528D01*
X908567Y1198371D01*
Y1195832D01*
X745998Y1211067D02*
Y1195832D01*
X738381D01*
X735841Y1198371D01*
Y1208528D01*
X738381Y1211067D01*
X745998D01*
X730763Y1195832D02*
X725685D01*
X728224D01*
Y1211067D01*
X730763Y1208528D01*
X707910Y1211067D02*
X712989Y1208528D01*
X718067Y1203449D01*
Y1198371D01*
X715528Y1195832D01*
X710450D01*
X707910Y1198371D01*
Y1200910D01*
X710450Y1203449D01*
X718067D01*
X555498Y1211067D02*
Y1195832D01*
X547881D01*
X545341Y1198371D01*
Y1208528D01*
X547881Y1211067D01*
X555498D01*
X540263Y1195832D02*
X535185D01*
X537724D01*
Y1211067D01*
X540263Y1208528D01*
X517410Y1211067D02*
X527567D01*
Y1203449D01*
X522489Y1205989D01*
X519949D01*
X517410Y1203449D01*
Y1198371D01*
X519949Y1195832D01*
X525028D01*
X527567Y1198371D01*
X317500Y1211067D02*
Y1195832D01*
X309883D01*
X307343Y1198371D01*
Y1208528D01*
X309883Y1211067D01*
X317500D01*
X302265Y1195832D02*
X297187D01*
X299726D01*
Y1211067D01*
X302265Y1208528D01*
X281952Y1195832D02*
Y1211067D01*
X289569Y1203449D01*
X279412D01*
X2984500Y1449319D02*
Y1434084D01*
X2976883D01*
X2974343Y1436623D01*
Y1446780D01*
X2976883Y1449319D01*
X2984500D01*
X2969265Y1434084D02*
X2964187D01*
X2966726D01*
Y1449319D01*
X2969265Y1446780D01*
X2956569D02*
X2954030Y1449319D01*
X2948951D01*
X2946412Y1446780D01*
Y1444241D01*
X2948951Y1441702D01*
X2951491D01*
X2948951D01*
X2946412Y1439162D01*
Y1436623D01*
X2948951Y1434084D01*
X2954030D01*
X2956569Y1436623D01*
X2794000Y1449319D02*
Y1434084D01*
X2786382D01*
X2783843Y1436623D01*
Y1446780D01*
X2786382Y1449319D01*
X2794000D01*
X2778765Y1434084D02*
X2773687D01*
X2776226D01*
Y1449319D01*
X2778765Y1446780D01*
X2755912Y1434084D02*
X2766069D01*
X2755912Y1444241D01*
Y1446780D01*
X2758452Y1449319D01*
X2763530D01*
X2766069Y1446780D01*
X2598420Y1449319D02*
Y1434084D01*
X2590803D01*
X2588263Y1436623D01*
Y1446780D01*
X2590803Y1449319D01*
X2598420D01*
X2583185Y1434084D02*
X2578107D01*
X2580646D01*
Y1449319D01*
X2583185Y1446780D01*
X2570489Y1434084D02*
X2565411D01*
X2567950D01*
Y1449319D01*
X2570489Y1446780D01*
X2413000Y1449319D02*
Y1434084D01*
X2405383D01*
X2402843Y1436623D01*
Y1446780D01*
X2405383Y1449319D01*
X2413000D01*
X2397765Y1434084D02*
X2392687D01*
X2395226D01*
Y1449319D01*
X2397765Y1446780D01*
X2385069D02*
X2382530Y1449319D01*
X2377451D01*
X2374912Y1446780D01*
Y1436623D01*
X2377451Y1434084D01*
X2382530D01*
X2385069Y1436623D01*
Y1446780D01*
X2162048Y1449319D02*
Y1434084D01*
X2154431D01*
X2151891Y1436623D01*
Y1446780D01*
X2154431Y1449319D01*
X2162048D01*
X2146813Y1436623D02*
X2144274Y1434084D01*
X2139195D01*
X2136656Y1436623D01*
Y1446780D01*
X2139195Y1449319D01*
X2144274D01*
X2146813Y1446780D01*
Y1444241D01*
X2144274Y1441702D01*
X2136656D01*
X1971548Y1449319D02*
Y1434084D01*
X1963931D01*
X1961391Y1436623D01*
Y1446780D01*
X1963931Y1449319D01*
X1971548D01*
X1956313Y1446780D02*
X1953774Y1449319D01*
X1948695D01*
X1946156Y1446780D01*
Y1444241D01*
X1948695Y1441702D01*
X1946156Y1439162D01*
Y1436623D01*
X1948695Y1434084D01*
X1953774D01*
X1956313Y1436623D01*
Y1439162D01*
X1953774Y1441702D01*
X1956313Y1444241D01*
Y1446780D01*
X1953774Y1441702D02*
X1948695D01*
X1781048Y1449319D02*
Y1434084D01*
X1773430D01*
X1770891Y1436623D01*
Y1446780D01*
X1773430Y1449319D01*
X1781048D01*
X1765813D02*
X1755656D01*
Y1446780D01*
X1765813Y1436623D01*
Y1434084D01*
X1590548Y1449319D02*
Y1434084D01*
X1582930D01*
X1580391Y1436623D01*
Y1446780D01*
X1582930Y1449319D01*
X1590548D01*
X1565156D02*
X1570235Y1446780D01*
X1575313Y1441702D01*
Y1436623D01*
X1572774Y1434084D01*
X1567695D01*
X1565156Y1436623D01*
Y1439162D01*
X1567695Y1441702D01*
X1575313D01*
X1352550Y1449319D02*
Y1434084D01*
X1344933D01*
X1342393Y1436623D01*
Y1446780D01*
X1344933Y1449319D01*
X1352550D01*
X1327158D02*
X1337315D01*
Y1441702D01*
X1332237Y1444241D01*
X1329697D01*
X1327158Y1441702D01*
Y1436623D01*
X1329697Y1434084D01*
X1334776D01*
X1337315Y1436623D01*
X1162050Y1449319D02*
Y1434084D01*
X1154433D01*
X1151893Y1436623D01*
Y1446780D01*
X1154433Y1449319D01*
X1162050D01*
X1139197Y1434084D02*
Y1449319D01*
X1146815Y1441702D01*
X1136658D01*
X971550Y1449319D02*
Y1434084D01*
X963932D01*
X961393Y1436623D01*
Y1446780D01*
X963932Y1449319D01*
X971550D01*
X956315Y1446780D02*
X953776Y1449319D01*
X948697D01*
X946158Y1446780D01*
Y1444241D01*
X948697Y1441702D01*
X951237D01*
X948697D01*
X946158Y1439162D01*
Y1436623D01*
X948697Y1434084D01*
X953776D01*
X956315Y1436623D01*
X781050Y1449319D02*
Y1434084D01*
X773432D01*
X770893Y1436623D01*
Y1446780D01*
X773432Y1449319D01*
X781050D01*
X755658Y1434084D02*
X765815D01*
X755658Y1444241D01*
Y1446780D01*
X758197Y1449319D01*
X763276D01*
X765815Y1446780D01*
X537718Y1449319D02*
Y1434084D01*
X530101D01*
X527561Y1436623D01*
Y1446780D01*
X530101Y1449319D01*
X537718D01*
X522483Y1434084D02*
X517405D01*
X519944D01*
Y1449319D01*
X522483Y1446780D01*
X3360887Y1279078D02*
X3363426Y1281617D01*
X3368505D01*
X3371044Y1279078D01*
Y1268922D01*
X3368505Y1266383D01*
X3363426D01*
X3360887Y1268922D01*
X3355809Y1266383D02*
X3350730D01*
X3353270D01*
Y1281617D01*
X3355809Y1279078D01*
X3343113D02*
X3340574Y1281617D01*
X3335495D01*
X3332956Y1279078D01*
Y1268922D01*
X3335495Y1266383D01*
X3340574D01*
X3343113Y1268922D01*
Y1279078D01*
X3360099Y1356437D02*
X3362638Y1358976D01*
X3367716D01*
X3370256Y1356437D01*
Y1346280D01*
X3367716Y1343741D01*
X3362638D01*
X3360099Y1346280D01*
X3355020D02*
X3352481Y1343741D01*
X3347403D01*
X3344864Y1346280D01*
Y1356437D01*
X3347403Y1358976D01*
X3352481D01*
X3355020Y1356437D01*
Y1353897D01*
X3352481Y1351358D01*
X3344864D01*
X3329435Y1356356D02*
X3331974Y1358895D01*
X3337053D01*
X3339592Y1356356D01*
Y1346199D01*
X3337053Y1343660D01*
X3331974D01*
X3329435Y1346199D01*
X3324357Y1356356D02*
X3321818Y1358895D01*
X3316740D01*
X3314200Y1356356D01*
Y1353817D01*
X3316740Y1351277D01*
X3314200Y1348738D01*
Y1346199D01*
X3316740Y1343660D01*
X3321818D01*
X3324357Y1346199D01*
Y1348738D01*
X3321818Y1351277D01*
X3324357Y1353817D01*
Y1356356D01*
X3321818Y1351277D02*
X3316740D01*
X3145031Y1404108D02*
X3147570Y1406647D01*
X3152649D01*
X3155188Y1404108D01*
Y1393951D01*
X3152649Y1391412D01*
X3147570D01*
X3145031Y1393951D01*
X3139953Y1406647D02*
X3129796D01*
Y1404108D01*
X3139953Y1393951D01*
Y1391412D01*
X3176539Y1405078D02*
X3179078Y1407617D01*
X3184157D01*
X3186696Y1405078D01*
Y1394922D01*
X3184157Y1392383D01*
X3179078D01*
X3176539Y1394922D01*
X3161304Y1407617D02*
X3166382Y1405078D01*
X3171461Y1400000D01*
Y1394922D01*
X3168922Y1392383D01*
X3163843D01*
X3161304Y1394922D01*
Y1397461D01*
X3163843Y1400000D01*
X3171461D01*
X3204539Y1247078D02*
X3207078Y1249617D01*
X3212157D01*
X3214696Y1247078D01*
Y1236922D01*
X3212157Y1234382D01*
X3207078D01*
X3204539Y1236922D01*
X3189304Y1249617D02*
X3199461D01*
Y1242000D01*
X3194383Y1244539D01*
X3191843D01*
X3189304Y1242000D01*
Y1236922D01*
X3191843Y1234382D01*
X3196922D01*
X3199461Y1236922D01*
X3298193Y1433826D02*
X3300732Y1436365D01*
X3305811D01*
X3308350Y1433826D01*
Y1423669D01*
X3305811Y1421130D01*
X3300732D01*
X3298193Y1423669D01*
X3285497Y1421130D02*
Y1436365D01*
X3293115Y1428748D01*
X3282958D01*
X3168539Y1247078D02*
X3171078Y1249617D01*
X3176157D01*
X3178696Y1247078D01*
Y1236922D01*
X3176157Y1234382D01*
X3171078D01*
X3168539Y1236922D01*
X3163461Y1247078D02*
X3160922Y1249617D01*
X3155843D01*
X3153304Y1247078D01*
Y1244539D01*
X3155843Y1242000D01*
X3158383D01*
X3155843D01*
X3153304Y1239461D01*
Y1236922D01*
X3155843Y1234382D01*
X3160922D01*
X3163461Y1236922D01*
X3306923Y1051724D02*
X3304384Y1054263D01*
Y1059342D01*
X3306923Y1061881D01*
X3317079D01*
X3319619Y1059342D01*
Y1054263D01*
X3317079Y1051724D01*
X3319619Y1036489D02*
Y1046646D01*
X3309462Y1036489D01*
X3306923D01*
X3304384Y1039028D01*
Y1044106D01*
X3306923Y1046646D01*
X3200000Y1187078D02*
X3202539Y1189617D01*
X3207617D01*
X3210157Y1187078D01*
Y1176922D01*
X3207617Y1174382D01*
X3202539D01*
X3200000Y1176922D01*
X3194922Y1174382D02*
X3189843D01*
X3192383D01*
Y1189617D01*
X3194922Y1187078D01*
D69*
X3296482Y1366452D02*
G03*
X3296482Y1366452I-1250J0D01*
G01*
X3227500Y1088500D02*
G03*
X3227500Y1088500I-1250J0D01*
G01*
D70*
X3275982Y1352952D02*
G03*
X3275982Y1352952I-3000J0D01*
G01*
D71*
X516125Y1411288D02*
X531625D01*
X516125Y1398587D02*
Y1411288D01*
X531625Y1398587D02*
Y1411288D01*
X754250D02*
X769750D01*
X754250Y1398587D02*
Y1411288D01*
X769750Y1398587D02*
Y1411288D01*
X944750D02*
X960250D01*
X944750Y1398587D02*
Y1411288D01*
X960250Y1398587D02*
Y1411288D01*
X1135250D02*
X1150750D01*
X1135250Y1398587D02*
Y1411288D01*
X1150750Y1398587D02*
Y1411288D01*
X1325750D02*
X1341250D01*
X1325750Y1398587D02*
Y1411288D01*
X1341250Y1398587D02*
Y1411288D01*
X1563875D02*
X1579375D01*
X1563875Y1398587D02*
Y1411288D01*
X1579375Y1398587D02*
Y1411288D01*
X1754375D02*
X1769875D01*
X1754375Y1398587D02*
Y1411288D01*
X1769875Y1398587D02*
Y1411288D01*
X1944875D02*
X1960375D01*
X1944875Y1398587D02*
Y1411288D01*
X1960375Y1398587D02*
Y1411288D01*
X2135375D02*
X2150875D01*
X2135375Y1398587D02*
Y1411288D01*
X2150875Y1398587D02*
Y1411288D01*
X2373500D02*
X2389000D01*
X2373500Y1398587D02*
Y1411288D01*
X2389000Y1398587D02*
Y1411288D01*
X2564000D02*
X2579500D01*
X2564000Y1398587D02*
Y1411288D01*
X2579500Y1398587D02*
Y1411288D01*
X2754500D02*
X2770000D01*
X2754500Y1398587D02*
Y1411288D01*
X2770000Y1398587D02*
Y1411288D01*
X2945000D02*
X2960500D01*
X2945000Y1398587D02*
Y1411288D01*
X2960500Y1398587D02*
Y1411288D01*
X278000Y1173163D02*
X293500D01*
X278000Y1160462D02*
Y1173163D01*
X293500Y1160462D02*
Y1173163D01*
X516125D02*
X531625D01*
X516125Y1160462D02*
Y1173163D01*
X531625Y1160462D02*
Y1173163D01*
X706625D02*
X722125D01*
X706625Y1160462D02*
Y1173163D01*
X722125Y1160462D02*
Y1173163D01*
X897125D02*
X912625D01*
X897125Y1160462D02*
Y1173163D01*
X912625Y1160462D02*
Y1173163D01*
X1087625D02*
X1103125D01*
X1087625Y1160462D02*
Y1173163D01*
X1103125Y1160462D02*
Y1173163D01*
X1278125D02*
X1293625D01*
X1278125Y1160462D02*
Y1173163D01*
X1293625Y1160462D02*
Y1173163D01*
X1468625D02*
X1484125D01*
X1468625Y1160462D02*
Y1173163D01*
X1484125Y1160462D02*
Y1173163D01*
X1659125D02*
X1674625D01*
X1659125Y1160462D02*
Y1173163D01*
X1674625Y1160462D02*
Y1173163D01*
X1849625D02*
X1865125D01*
X1849625Y1160462D02*
Y1173163D01*
X1865125Y1160462D02*
Y1173163D01*
X2040125D02*
X2055625D01*
X2040125Y1160462D02*
Y1173163D01*
X2055625Y1160462D02*
Y1173163D01*
X2230625D02*
X2246125D01*
X2230625Y1160462D02*
Y1173163D01*
X2246125Y1160462D02*
Y1173163D01*
X2421125D02*
X2436625D01*
X2421125Y1160462D02*
Y1173163D01*
X2436625Y1160462D02*
Y1173163D01*
X2611625D02*
X2627125D01*
X2611625Y1160462D02*
Y1173163D01*
X2627125Y1160462D02*
Y1173163D01*
X2802125D02*
X2817625D01*
X2802125Y1160462D02*
Y1173163D01*
X2817625Y1160462D02*
Y1173163D01*
X3087875D02*
X3103375D01*
X3087875Y1160462D02*
Y1173163D01*
X3103375Y1160462D02*
Y1173163D01*
X3468875D02*
X3484375D01*
X3468875Y1160462D02*
Y1173163D01*
X3484375Y1160462D02*
Y1173163D01*
X278000Y982662D02*
X293500D01*
X278000Y969962D02*
Y982662D01*
X293500Y969962D02*
Y982662D01*
X563750D02*
X579249D01*
X563750Y969962D02*
Y982662D01*
X579249Y969962D02*
Y982662D01*
X801875Y982663D02*
X817375D01*
X801875Y969962D02*
Y982663D01*
X817375Y969962D02*
Y982663D01*
X992375D02*
X1007875D01*
X992375Y969962D02*
Y982663D01*
X1007875Y969962D02*
Y982663D01*
X1182875D02*
X1198375D01*
X1182875Y969962D02*
Y982663D01*
X1198375Y969962D02*
Y982663D01*
X1373375D02*
X1388875D01*
X1373375Y969962D02*
Y982663D01*
X1388875Y969962D02*
Y982663D01*
X1563875D02*
X1579375D01*
X1563875Y969962D02*
Y982663D01*
X1579375Y969962D02*
Y982663D01*
X1754375D02*
X1769875D01*
X1754375Y969962D02*
Y982663D01*
X1769875Y969962D02*
Y982663D01*
X1944875D02*
X1960375D01*
X1944875Y969962D02*
Y982663D01*
X1960375Y969962D02*
Y982663D01*
X2135375D02*
X2150875D01*
X2135375Y969962D02*
Y982663D01*
X2150875Y969962D02*
Y982663D01*
X2325875D02*
X2341375D01*
X2325875Y969962D02*
Y982663D01*
X2341375Y969962D02*
Y982663D01*
X2516375D02*
X2531875D01*
X2516375Y969962D02*
Y982663D01*
X2531875Y969962D02*
Y982663D01*
X2706875D02*
X2722375D01*
X2706875Y969962D02*
Y982663D01*
X2722375Y969962D02*
Y982663D01*
X2909281Y946944D02*
X2924781D01*
X2909281Y934244D02*
Y946944D01*
X2924781Y934244D02*
Y946944D01*
X3147406D02*
X3162906D01*
X3147406Y934244D02*
Y946944D01*
X3162906Y934244D02*
Y946944D01*
X3468875Y982663D02*
X3484375D01*
X3468875Y969962D02*
Y982663D01*
X3484375Y969962D02*
Y982663D01*
X278000Y792162D02*
X293500D01*
X278000Y779463D02*
Y792162D01*
X293500Y779463D02*
Y792162D01*
X587562D02*
X603063D01*
X587562Y779463D02*
Y792162D01*
X603063Y779463D02*
Y792162D01*
X849500D02*
X865000D01*
X849500Y779463D02*
Y792162D01*
X865000Y779463D02*
Y792162D01*
X1040000D02*
X1055500D01*
X1040000Y779463D02*
Y792162D01*
X1055500Y779463D02*
Y792162D01*
X1230500D02*
X1246000D01*
X1230500Y779463D02*
Y792162D01*
X1246000Y779463D02*
Y792162D01*
X1421000D02*
X1436500D01*
X1421000Y779463D02*
Y792162D01*
X1436500Y779463D02*
Y792162D01*
X1611500D02*
X1627000D01*
X1611500Y779463D02*
Y792162D01*
X1627000Y779463D02*
Y792162D01*
X1802000D02*
X1817500D01*
X1802000Y779463D02*
Y792162D01*
X1817500Y779463D02*
Y792162D01*
X1992500D02*
X2008000D01*
X1992500Y779463D02*
Y792162D01*
X2008000Y779463D02*
Y792162D01*
X2183000D02*
X2198500D01*
X2183000Y779463D02*
Y792162D01*
X2198500Y779463D02*
Y792162D01*
X2373500D02*
X2389000D01*
X2373500Y779463D02*
Y792162D01*
X2389000Y779463D02*
Y792162D01*
X2564000D02*
X2579500D01*
X2564000Y779463D02*
Y792162D01*
X2579500Y779463D02*
Y792162D01*
X2754500D02*
X2770000D01*
X2754500Y779463D02*
Y792162D01*
X2770000Y779463D02*
Y792162D01*
X3064062D02*
X3079562D01*
X3064062Y779463D02*
Y792162D01*
X3079562Y779463D02*
Y792162D01*
X3468875D02*
X3484375D01*
X3468875Y779463D02*
Y792162D01*
X3484375Y779463D02*
Y792162D01*
X278000Y601662D02*
X293500D01*
X278000Y588963D02*
Y601662D01*
X293500Y588963D02*
Y601662D01*
X635187D02*
X650687D01*
X635187Y588963D02*
Y601662D01*
X650687Y588963D02*
Y601662D01*
X944750D02*
X960250D01*
X944750Y588963D02*
Y601662D01*
X960250Y588963D02*
Y601662D01*
X1135250D02*
X1150750D01*
X1135250Y588963D02*
Y601662D01*
X1150750Y588963D02*
Y601662D01*
X1325750D02*
X1341250D01*
X1325750Y588963D02*
Y601662D01*
X1341250Y588963D02*
Y601662D01*
X1516250D02*
X1531750D01*
X1516250Y588963D02*
Y601662D01*
X1531750Y588963D02*
Y601662D01*
X1706750D02*
X1722250D01*
X1706750Y588963D02*
Y601662D01*
X1722250Y588963D02*
Y601662D01*
X1897250D02*
X1912750D01*
X1897250Y588963D02*
Y601662D01*
X1912750Y588963D02*
Y601662D01*
X2087750D02*
X2103250D01*
X2087750Y588963D02*
Y601662D01*
X2103250Y588963D02*
Y601662D01*
X2278250D02*
X2293750D01*
X2278250Y588963D02*
Y601662D01*
X2293750Y588963D02*
Y601662D01*
X2468750D02*
X2484250D01*
X2468750Y588963D02*
Y601662D01*
X2484250Y588963D02*
Y601662D01*
X2659250D02*
X2674750D01*
X2659250Y588963D02*
Y601662D01*
X2674750Y588963D02*
Y601662D01*
X2921187D02*
X2936688D01*
X2921187Y588963D02*
Y601662D01*
X2936688Y588963D02*
Y601662D01*
X3230750Y554038D02*
X3246250D01*
X3230750Y541338D02*
Y554038D01*
X3246250Y541338D02*
Y554038D01*
X3468875Y601662D02*
X3484375D01*
X3468875Y588963D02*
Y601662D01*
X3484375Y588963D02*
Y601662D01*
X278000Y411162D02*
X293500D01*
X278000Y398462D02*
Y411162D01*
X293500Y398462D02*
Y411162D01*
X539938D02*
X555438D01*
X539938Y398462D02*
Y411162D01*
X555438Y398462D02*
Y411162D01*
X778063D02*
X793562D01*
X778063Y398462D02*
Y411162D01*
X793562Y398462D02*
Y411162D01*
X1016188D02*
X1031687D01*
X1016188Y398462D02*
Y411162D01*
X1031687Y398462D02*
Y411162D01*
X1730562D02*
X1746062D01*
X1730562Y398462D02*
Y411162D01*
X1746062Y398462D02*
Y411162D01*
X2468750D02*
X2484250D01*
X2468750Y398462D02*
Y411162D01*
X2484250Y398462D02*
Y411162D01*
X2754500D02*
X2770000D01*
X2754500Y398462D02*
Y411162D01*
X2770000Y398462D02*
Y411162D01*
X3040250Y363537D02*
X3055750D01*
X3040250Y350838D02*
Y363537D01*
X3055750Y350838D02*
Y363537D01*
X3230750D02*
X3246250D01*
X3230750Y350838D02*
Y363537D01*
X3246250Y350838D02*
Y363537D01*
X3421250D02*
X3436750D01*
X3421250Y350838D02*
Y363537D01*
X3436750Y350838D02*
Y363537D01*
X147031Y1374775D02*
X162531D01*
Y1387475D01*
X147031Y1374775D02*
Y1387475D01*
X3282982Y1300952D02*
Y1362952D01*
X3220982Y1300952D02*
Y1362952D01*
X3282982D01*
X3220982Y1300952D02*
X3282982D01*
X3239500Y1088500D02*
Y1155500D01*
X3276500Y1088500D02*
Y1155500D01*
X3239500Y1088500D02*
X3276500D01*
X3239500Y1155500D02*
X3276500D01*
X3440356Y1327546D02*
X3453357D01*
X3380000Y1383500D02*
Y1396500D01*
X3456856Y1285327D02*
Y1298327D01*
D72*
X3024000Y1327000D02*
Y1357000D01*
X3066000Y1312000D02*
Y1319140D01*
X3043590Y1312000D02*
X3066000D01*
X3043590Y1372000D02*
X3066000D01*
Y1364860D02*
Y1372000D01*
D73*
X523559Y1408748D02*
D03*
X761684D02*
D03*
X952184D02*
D03*
X1142684D02*
D03*
X1333184D02*
D03*
X1571309D02*
D03*
X1761809D02*
D03*
X1952309D02*
D03*
X2142809D02*
D03*
X2380934D02*
D03*
X2571434D02*
D03*
X2761934D02*
D03*
X2952434D02*
D03*
X285434Y1170623D02*
D03*
X523559D02*
D03*
X714059D02*
D03*
X904559D02*
D03*
X1095059D02*
D03*
X1285559D02*
D03*
X1476059D02*
D03*
X1666559D02*
D03*
X1857059D02*
D03*
X2047559D02*
D03*
X2238059D02*
D03*
X2428559D02*
D03*
X2619059D02*
D03*
X2809559D02*
D03*
X3095309D02*
D03*
X3476309D02*
D03*
X285434Y980123D02*
D03*
X571184D02*
D03*
X809309Y980123D02*
D03*
X999809D02*
D03*
X1190309D02*
D03*
X1380809D02*
D03*
X1571309D02*
D03*
X1761809D02*
D03*
X1952309D02*
D03*
X2142809D02*
D03*
X2333309D02*
D03*
X2523809D02*
D03*
X2714309D02*
D03*
X2916715Y944405D02*
D03*
X3154840D02*
D03*
X3476309Y980123D02*
D03*
X285434Y789623D02*
D03*
X594997D02*
D03*
X856934D02*
D03*
X1047434D02*
D03*
X1237934D02*
D03*
X1428434D02*
D03*
X1618934D02*
D03*
X1809434D02*
D03*
X1999934D02*
D03*
X2190434D02*
D03*
X2380934D02*
D03*
X2571434D02*
D03*
X2761934D02*
D03*
X3071497D02*
D03*
X3476309D02*
D03*
X285434Y599123D02*
D03*
X642622D02*
D03*
X952184D02*
D03*
X1142684D02*
D03*
X1333184D02*
D03*
X1523684D02*
D03*
X1714184D02*
D03*
X1904684D02*
D03*
X2095184D02*
D03*
X2285684D02*
D03*
X2476184D02*
D03*
X2666684D02*
D03*
X2928622D02*
D03*
X3238184Y551498D02*
D03*
X3476309Y599123D02*
D03*
X285434Y408623D02*
D03*
X547372D02*
D03*
X785497D02*
D03*
X1023622D02*
D03*
X1737997D02*
D03*
X2476184D02*
D03*
X2761934D02*
D03*
X3047684Y360998D02*
D03*
X3238184D02*
D03*
X3428684D02*
D03*
X155097Y1377314D02*
D03*
M02*
