G04*
G04 #@! TF.GenerationSoftware,Altium Limited,Altium Designer,25.6.2 (33)*
G04*
G04 Layer_Color=128*
%FSLAX44Y44*%
%MOMM*%
G71*
G04*
G04 #@! TF.SameCoordinates,BA1FA69A-D19E-42E0-B421-8A8EBEBE1810*
G04*
G04*
G04 #@! TF.FilePolarity,Positive*
G04*
G01*
G75*
%ADD38R,1.8000X1.2000*%
%ADD39R,1.5500X0.6000*%
%ADD40R,0.9500X0.9000*%
%ADD41O,1.6500X0.3000*%
%ADD42O,0.3000X1.6500*%
G04:AMPARAMS|DCode=43|XSize=1mm|YSize=2.05mm|CornerRadius=0.05mm|HoleSize=0mm|Usage=FLASHONLY|Rotation=270.000|XOffset=0mm|YOffset=0mm|HoleType=Round|Shape=RoundedRectangle|*
%AMROUNDEDRECTD43*
21,1,1.0000,1.9500,0,0,270.0*
21,1,0.9000,2.0500,0,0,270.0*
1,1,0.1000,-0.9750,-0.4500*
1,1,0.1000,-0.9750,0.4500*
1,1,0.1000,0.9750,0.4500*
1,1,0.1000,0.9750,-0.4500*
%
%ADD43ROUNDEDRECTD43*%
G04:AMPARAMS|DCode=44|XSize=3.25mm|YSize=2.05mm|CornerRadius=0.0513mm|HoleSize=0mm|Usage=FLASHONLY|Rotation=270.000|XOffset=0mm|YOffset=0mm|HoleType=Round|Shape=RoundedRectangle|*
%AMROUNDEDRECTD44*
21,1,3.2500,1.9475,0,0,270.0*
21,1,3.1475,2.0500,0,0,270.0*
1,1,0.1025,-0.9738,-1.5738*
1,1,0.1025,-0.9738,1.5738*
1,1,0.1025,0.9738,1.5738*
1,1,0.1025,0.9738,-1.5738*
%
%ADD44ROUNDEDRECTD44*%
%ADD45R,1.5000X1.4000*%
%ADD46R,1.4000X1.5000*%
%ADD47R,1.4000X1.1000*%
%ADD48R,1.1000X1.4000*%
D38*
X3031000Y1370000D02*
D03*
Y1314000D02*
D03*
D39*
X3069750Y1327000D02*
D03*
Y1337000D02*
D03*
Y1357000D02*
D03*
Y1347000D02*
D03*
D40*
X523875Y1389187D02*
D03*
X523875Y1420688D02*
D03*
X762000Y1389187D02*
D03*
X762000Y1420688D02*
D03*
X952500Y1389187D02*
D03*
X952500Y1420688D02*
D03*
X1143000Y1389187D02*
D03*
X1143000Y1420688D02*
D03*
X1333500Y1389187D02*
D03*
X1333500Y1420688D02*
D03*
X1571625Y1389187D02*
D03*
X1571625Y1420688D02*
D03*
X1762125Y1389187D02*
D03*
X1762125Y1420688D02*
D03*
X1952625Y1389187D02*
D03*
X1952625Y1420688D02*
D03*
X2143125Y1389187D02*
D03*
X2143125Y1420688D02*
D03*
X2381250Y1389187D02*
D03*
X2381250Y1420688D02*
D03*
X2571750Y1389187D02*
D03*
X2571750Y1420688D02*
D03*
X2762250Y1389187D02*
D03*
X2762250Y1420688D02*
D03*
X2952750Y1389187D02*
D03*
X2952750Y1420688D02*
D03*
X285750Y1151062D02*
D03*
X285750Y1182562D02*
D03*
X523875Y1151062D02*
D03*
X523875Y1182562D02*
D03*
X714375Y1151062D02*
D03*
X714375Y1182562D02*
D03*
X904875Y1151062D02*
D03*
X904875Y1182562D02*
D03*
X1095375Y1151062D02*
D03*
X1095375Y1182562D02*
D03*
X1285875Y1151062D02*
D03*
X1285875Y1182562D02*
D03*
X1476375Y1151062D02*
D03*
X1476375Y1182562D02*
D03*
X1666875Y1151062D02*
D03*
X1666875Y1182562D02*
D03*
X1857375Y1151062D02*
D03*
X1857375Y1182562D02*
D03*
X2047875Y1151062D02*
D03*
X2047875Y1182562D02*
D03*
X2238375Y1151062D02*
D03*
X2238375Y1182562D02*
D03*
X2428875Y1151062D02*
D03*
X2428875Y1182562D02*
D03*
X2619375Y1151062D02*
D03*
X2619375Y1182562D02*
D03*
X2809875Y1151062D02*
D03*
X2809875Y1182562D02*
D03*
X3095625Y1151062D02*
D03*
X3095625Y1182562D02*
D03*
X3476625Y1151062D02*
D03*
X3476625Y1182562D02*
D03*
X285750Y960562D02*
D03*
X285750Y992062D02*
D03*
X571499Y960562D02*
D03*
X571499Y992062D02*
D03*
X809625Y960563D02*
D03*
X809625Y992063D02*
D03*
X1000125Y960563D02*
D03*
X1000125Y992063D02*
D03*
X1190625Y960563D02*
D03*
X1190625Y992063D02*
D03*
X1381125Y960563D02*
D03*
X1381125Y992063D02*
D03*
X1571625Y960563D02*
D03*
X1571625Y992063D02*
D03*
X1762125Y960563D02*
D03*
X1762125Y992063D02*
D03*
X1952625Y960563D02*
D03*
X1952625Y992063D02*
D03*
X2143125Y960563D02*
D03*
X2143125Y992063D02*
D03*
X2333625Y960563D02*
D03*
X2333625Y992063D02*
D03*
X2524125Y960563D02*
D03*
X2524125Y992063D02*
D03*
X2714625Y960563D02*
D03*
X2714625Y992063D02*
D03*
X2917031Y924844D02*
D03*
X2917031Y956344D02*
D03*
X3155156Y924844D02*
D03*
X3155156Y956344D02*
D03*
X3476625Y960563D02*
D03*
X3476625Y992063D02*
D03*
X285750Y770062D02*
D03*
X285750Y801562D02*
D03*
X595312Y770062D02*
D03*
X595312Y801562D02*
D03*
X857250Y770062D02*
D03*
X857250Y801562D02*
D03*
X1047750Y770062D02*
D03*
X1047750Y801562D02*
D03*
X1238250Y770062D02*
D03*
X1238250Y801562D02*
D03*
X1428750Y770062D02*
D03*
X1428750Y801562D02*
D03*
X1619250Y770062D02*
D03*
X1619250Y801562D02*
D03*
X1809750Y770062D02*
D03*
X1809750Y801562D02*
D03*
X2000250Y770062D02*
D03*
X2000250Y801562D02*
D03*
X2190750Y770062D02*
D03*
X2190750Y801562D02*
D03*
X2381250Y770062D02*
D03*
X2381250Y801562D02*
D03*
X2571750Y770062D02*
D03*
X2571750Y801562D02*
D03*
X2762250Y770062D02*
D03*
X2762250Y801562D02*
D03*
X3071812Y770062D02*
D03*
X3071812Y801562D02*
D03*
X3476625Y770062D02*
D03*
X3476625Y801562D02*
D03*
X285750Y579562D02*
D03*
X285750Y611063D02*
D03*
X642937Y579562D02*
D03*
X642937Y611063D02*
D03*
X952500Y579562D02*
D03*
X952500Y611063D02*
D03*
X1143000Y579562D02*
D03*
X1143000Y611063D02*
D03*
X1333500Y579562D02*
D03*
X1333500Y611063D02*
D03*
X1524000Y579562D02*
D03*
X1524000Y611063D02*
D03*
X1714500Y579562D02*
D03*
X1714500Y611063D02*
D03*
X1905000Y579562D02*
D03*
X1905000Y611063D02*
D03*
X2095500Y579562D02*
D03*
X2095500Y611063D02*
D03*
X2286000Y579562D02*
D03*
X2286000Y611063D02*
D03*
X2476500Y579562D02*
D03*
X2476500Y611063D02*
D03*
X2667000Y579562D02*
D03*
X2667000Y611063D02*
D03*
X2928937Y579562D02*
D03*
X2928937Y611063D02*
D03*
X3238500Y531937D02*
D03*
X3238500Y563438D02*
D03*
X3476625Y579562D02*
D03*
X3476625Y611063D02*
D03*
X285750Y389062D02*
D03*
X285750Y420563D02*
D03*
X547687Y389062D02*
D03*
X547687Y420563D02*
D03*
X785813Y389062D02*
D03*
X785813Y420563D02*
D03*
X1023938Y389062D02*
D03*
X1023938Y420563D02*
D03*
X1738313Y389062D02*
D03*
X1738313Y420563D02*
D03*
X2476500Y389062D02*
D03*
X2476500Y420563D02*
D03*
X2762250Y389062D02*
D03*
X2762250Y420563D02*
D03*
X3048000Y341437D02*
D03*
X3048000Y372938D02*
D03*
X3238500Y341437D02*
D03*
X3238500Y372938D02*
D03*
X3429000Y341437D02*
D03*
X3429000Y372938D02*
D03*
X154781Y1396875D02*
D03*
X154781Y1365375D02*
D03*
D41*
X3295232Y1359452D02*
D03*
Y1354452D02*
D03*
Y1349452D02*
D03*
Y1344452D02*
D03*
Y1339452D02*
D03*
Y1334452D02*
D03*
Y1329452D02*
D03*
Y1324452D02*
D03*
Y1319452D02*
D03*
Y1314452D02*
D03*
Y1309452D02*
D03*
Y1304452D02*
D03*
X3208732D02*
D03*
Y1309452D02*
D03*
Y1314452D02*
D03*
Y1319452D02*
D03*
Y1324452D02*
D03*
Y1329452D02*
D03*
Y1334452D02*
D03*
Y1339452D02*
D03*
Y1344452D02*
D03*
Y1349452D02*
D03*
Y1354452D02*
D03*
Y1359452D02*
D03*
D42*
X3279482Y1288702D02*
D03*
X3274482D02*
D03*
X3269482D02*
D03*
X3264482D02*
D03*
X3259482D02*
D03*
X3254482D02*
D03*
X3249482D02*
D03*
X3244482D02*
D03*
X3239482D02*
D03*
X3234482D02*
D03*
X3229482D02*
D03*
X3224482D02*
D03*
Y1375202D02*
D03*
X3229482D02*
D03*
X3234482D02*
D03*
X3239482D02*
D03*
X3244482D02*
D03*
X3249482D02*
D03*
X3254482D02*
D03*
X3259482D02*
D03*
X3264482D02*
D03*
X3269482D02*
D03*
X3274482D02*
D03*
X3279482D02*
D03*
D43*
X3226250Y1099000D02*
D03*
Y1122000D02*
D03*
Y1145000D02*
D03*
D44*
X3289750Y1122000D02*
D03*
D45*
X3446856Y1317546D02*
D03*
Y1337546D02*
D03*
D46*
X3370000Y1390000D02*
D03*
X3390000D02*
D03*
X3466856Y1291827D02*
D03*
X3446856D02*
D03*
D47*
X3200000Y1161000D02*
D03*
Y1146000D02*
D03*
X3312000Y1073000D02*
D03*
Y1088000D02*
D03*
X3173013Y1260515D02*
D03*
Y1275515D02*
D03*
X3190872Y1260515D02*
D03*
Y1275515D02*
D03*
X3167060Y1361718D02*
D03*
Y1376718D02*
D03*
X3149200Y1361718D02*
D03*
Y1376718D02*
D03*
X3333747Y1329093D02*
D03*
Y1314093D02*
D03*
X3351606Y1329093D02*
D03*
Y1314093D02*
D03*
D48*
X3288982Y1404936D02*
D03*
X3303982D02*
D03*
X3400779Y1273968D02*
D03*
X3385779D02*
D03*
M02*
