G04*
G04 #@! TF.GenerationSoftware,Altium Limited,Altium Designer,25.6.2 (33)*
G04*
G04 Layer_Color=8388736*
%FSLAX25Y25*%
%MOIN*%
G70*
G04*
G04 #@! TF.SameCoordinates,775BD13B-FB31-4D53-9E9E-320528205FA0*
G04*
G04*
G04 #@! TF.FilePolarity,Negative*
G04*
G01*
G75*
%ADD11C,0.00800*%
%ADD12C,0.09658*%
G04:AMPARAMS|DCode=13|XSize=74.93mil|YSize=74.93mil|CornerRadius=37.47mil|HoleSize=0mil|Usage=FLASHONLY|Rotation=0.000|XOffset=0mil|YOffset=0mil|HoleType=Round|Shape=RoundedRectangle|*
%AMROUNDEDRECTD13*
21,1,0.07493,0.00000,0,0,0.0*
21,1,0.00000,0.07493,0,0,0.0*
1,1,0.07493,0.00000,0.00000*
1,1,0.07493,0.00000,0.00000*
1,1,0.07493,0.00000,0.00000*
1,1,0.07493,0.00000,0.00000*
%
%ADD13ROUNDEDRECTD13*%
%ADD14R,0.07493X0.07493*%
%ADD15C,0.08674*%
G04:AMPARAMS|DCode=16|XSize=137.92mil|YSize=86.74mil|CornerRadius=23.68mil|HoleSize=0mil|Usage=FLASHONLY|Rotation=90.000|XOffset=0mil|YOffset=0mil|HoleType=Round|Shape=RoundedRectangle|*
%AMROUNDEDRECTD16*
21,1,0.13792,0.03937,0,0,90.0*
21,1,0.09055,0.08674,0,0,90.0*
1,1,0.04737,0.01968,0.04528*
1,1,0.04737,0.01968,-0.04528*
1,1,0.04737,-0.01968,-0.04528*
1,1,0.04737,-0.01968,0.04528*
%
%ADD16ROUNDEDRECTD16*%
%ADD17O,0.06299X0.09449*%
%ADD18R,0.06299X0.09449*%
D11*
X459400Y103750D02*
D03*
X676250Y131250D02*
D03*
X636250D02*
D03*
X656250D02*
D03*
X459400Y163750D02*
D03*
X853100Y103750D02*
D03*
Y163750D02*
D03*
X1341875Y112500D02*
D03*
X1321875D02*
D03*
X1301875D02*
D03*
X1143750Y458750D02*
D03*
X1237500D02*
D03*
X1143750Y398750D02*
D03*
X1237500D02*
D03*
X1210625Y431250D02*
D03*
X1170625D02*
D03*
X1190625D02*
D03*
X1134375Y308750D02*
D03*
Y248750D02*
D03*
X1181250Y281250D02*
D03*
X1161250D02*
D03*
X1201250D02*
D03*
X1228125Y308750D02*
D03*
Y248750D02*
D03*
X271875Y173750D02*
D03*
Y233750D02*
D03*
X245000Y206250D02*
D03*
X205000D02*
D03*
X225000D02*
D03*
X178125Y173750D02*
D03*
Y233750D02*
D03*
X198125Y525000D02*
D03*
X178125D02*
D03*
X158125D02*
D03*
X251875D02*
D03*
X271875D02*
D03*
X291875D02*
D03*
X366875D02*
D03*
X346875D02*
D03*
X326875D02*
D03*
X401875D02*
D03*
X421875D02*
D03*
X441875D02*
D03*
X516875D02*
D03*
X496875D02*
D03*
X476875D02*
D03*
X570625D02*
D03*
X590625D02*
D03*
X610625D02*
D03*
X685625D02*
D03*
X665625D02*
D03*
X645625D02*
D03*
X720625D02*
D03*
X740625D02*
D03*
X760625D02*
D03*
X835625D02*
D03*
X815625D02*
D03*
X795625D02*
D03*
X889375D02*
D03*
X909375D02*
D03*
X929375D02*
D03*
X1004375D02*
D03*
X984375D02*
D03*
X964375D02*
D03*
X1039375D02*
D03*
X1059375D02*
D03*
X1079375D02*
D03*
X1154375D02*
D03*
X1134375D02*
D03*
X1114375D02*
D03*
X64375Y431250D02*
D03*
X84375D02*
D03*
X104375D02*
D03*
X198125D02*
D03*
X178125D02*
D03*
X158125D02*
D03*
X233125D02*
D03*
X253125D02*
D03*
X273125D02*
D03*
X348125D02*
D03*
X328125D02*
D03*
X308125D02*
D03*
X383125D02*
D03*
X403125D02*
D03*
X423125D02*
D03*
X498125D02*
D03*
X478125D02*
D03*
X458125D02*
D03*
X533125D02*
D03*
X553125D02*
D03*
X573125D02*
D03*
X648125D02*
D03*
X628125D02*
D03*
X608125D02*
D03*
X683125D02*
D03*
X703125D02*
D03*
X723125D02*
D03*
X798125D02*
D03*
X778125D02*
D03*
X758125D02*
D03*
X833125D02*
D03*
X853125D02*
D03*
X873125D02*
D03*
X948125D02*
D03*
X928125D02*
D03*
X908125D02*
D03*
X983125D02*
D03*
X1003125D02*
D03*
X1023125D02*
D03*
X1098125D02*
D03*
X1078125D02*
D03*
X1058125D02*
D03*
X1320625D02*
D03*
X1340625D02*
D03*
X1360625D02*
D03*
X104375Y356250D02*
D03*
X84375D02*
D03*
X64375D02*
D03*
X270625D02*
D03*
X290625D02*
D03*
X310625D02*
D03*
X385625D02*
D03*
X365625D02*
D03*
X345625D02*
D03*
X420625D02*
D03*
X440625D02*
D03*
X460625D02*
D03*
X535625D02*
D03*
X515625D02*
D03*
X495625D02*
D03*
X570625D02*
D03*
X590625D02*
D03*
X610625D02*
D03*
X685625D02*
D03*
X665625D02*
D03*
X645625D02*
D03*
X720625D02*
D03*
X740625D02*
D03*
X760625D02*
D03*
X835625D02*
D03*
X815625D02*
D03*
X795625D02*
D03*
X870625D02*
D03*
X890625D02*
D03*
X910625D02*
D03*
X985625D02*
D03*
X965625D02*
D03*
X945625D02*
D03*
X1020625D02*
D03*
X1040625D02*
D03*
X1060625D02*
D03*
X1135625D02*
D03*
X1115625D02*
D03*
X1095625D02*
D03*
X1320625D02*
D03*
X1340625D02*
D03*
X1360625D02*
D03*
X104375Y281250D02*
D03*
X84375D02*
D03*
X64375D02*
D03*
X289375D02*
D03*
X309375D02*
D03*
X329375D02*
D03*
X404375D02*
D03*
X384375D02*
D03*
X364375D02*
D03*
X439375D02*
D03*
X459375D02*
D03*
X479375D02*
D03*
X554375D02*
D03*
X534375D02*
D03*
X514375D02*
D03*
X589375D02*
D03*
X609375D02*
D03*
X629375D02*
D03*
X704375D02*
D03*
X684375D02*
D03*
X664375D02*
D03*
X739375D02*
D03*
X759375D02*
D03*
X779375D02*
D03*
X854375D02*
D03*
X834375D02*
D03*
X814375D02*
D03*
X889375D02*
D03*
X909375D02*
D03*
X929375D02*
D03*
X1004375D02*
D03*
X984375D02*
D03*
X964375D02*
D03*
X1039374Y281250D02*
D03*
X1059374D02*
D03*
X1079374D02*
D03*
X1360625Y281250D02*
D03*
X1340625D02*
D03*
X1320625D02*
D03*
X64375Y206250D02*
D03*
X84375D02*
D03*
X104375D02*
D03*
X366875D02*
D03*
X346875D02*
D03*
X326875D02*
D03*
X401875D02*
D03*
X421875D02*
D03*
X441875D02*
D03*
X516875D02*
D03*
X496875D02*
D03*
X476875D02*
D03*
X551875D02*
D03*
X571875D02*
D03*
X591875D02*
D03*
X666875D02*
D03*
X646875D02*
D03*
X626875D02*
D03*
X701875D02*
D03*
X721875D02*
D03*
X741875D02*
D03*
X816875D02*
D03*
X796875D02*
D03*
X776875D02*
D03*
X851875D02*
D03*
X871875D02*
D03*
X891875D02*
D03*
X966875D02*
D03*
X946875D02*
D03*
X926875D02*
D03*
X1001875D02*
D03*
X1021875D02*
D03*
X1041875D02*
D03*
X1266875Y187500D02*
D03*
X1246875D02*
D03*
X1226875D02*
D03*
X1320625Y206250D02*
D03*
X1340625D02*
D03*
X1360625D02*
D03*
X104375Y131250D02*
D03*
X84375D02*
D03*
X64375D02*
D03*
X1151875Y112500D02*
D03*
X1171875D02*
D03*
X1191875D02*
D03*
X1266875D02*
D03*
X1246875D02*
D03*
X1226875D02*
D03*
X206250Y281250D02*
D03*
X186250D02*
D03*
X226250D02*
D03*
X1145000Y206250D02*
D03*
X1105000D02*
D03*
X1125000D02*
D03*
X207500Y131250D02*
D03*
X167500D02*
D03*
X187500D02*
D03*
X281250D02*
D03*
X261250D02*
D03*
X301250D02*
D03*
X395000D02*
D03*
X355000D02*
D03*
X375000D02*
D03*
X196875Y356250D02*
D03*
X176875D02*
D03*
X216875D02*
D03*
X1229375D02*
D03*
X1189375D02*
D03*
X1209375D02*
D03*
X946875Y131250D02*
D03*
X926875D02*
D03*
X966875D02*
D03*
X1079375D02*
D03*
X1039375D02*
D03*
X1059375D02*
D03*
D12*
X641250Y141250D02*
D03*
X666250Y151250D02*
D03*
X1331875Y132500D02*
D03*
X1306875Y122500D02*
D03*
X1200625Y451250D02*
D03*
X1175625Y441250D02*
D03*
X1191250Y301250D02*
D03*
X1166250Y291250D02*
D03*
X210000Y216250D02*
D03*
X235000Y226250D02*
D03*
X188125Y545000D02*
D03*
X163125Y535000D02*
D03*
X256875D02*
D03*
X281875Y545000D02*
D03*
X356875D02*
D03*
X331875Y535000D02*
D03*
X406875D02*
D03*
X431875Y545000D02*
D03*
X506875D02*
D03*
X481875Y535000D02*
D03*
X575625D02*
D03*
X600625Y545000D02*
D03*
X675625D02*
D03*
X650625Y535000D02*
D03*
X725625D02*
D03*
X750625Y545000D02*
D03*
X825625D02*
D03*
X800625Y535000D02*
D03*
X894375D02*
D03*
X919375Y545000D02*
D03*
X994375D02*
D03*
X969375Y535000D02*
D03*
X1044375D02*
D03*
X1069375Y545000D02*
D03*
X1144375D02*
D03*
X1119375Y535000D02*
D03*
X69375Y441250D02*
D03*
X94375Y451250D02*
D03*
X188125D02*
D03*
X163125Y441250D02*
D03*
X238125D02*
D03*
X263125Y451250D02*
D03*
X338125D02*
D03*
X313125Y441250D02*
D03*
X388125D02*
D03*
X413125Y451250D02*
D03*
X488125D02*
D03*
X463125Y441250D02*
D03*
X538125D02*
D03*
X563125Y451250D02*
D03*
X638125D02*
D03*
X613125Y441250D02*
D03*
X688125D02*
D03*
X713125Y451250D02*
D03*
X788125D02*
D03*
X763125Y441250D02*
D03*
X838125D02*
D03*
X863125Y451250D02*
D03*
X938125D02*
D03*
X913125Y441250D02*
D03*
X988125D02*
D03*
X1013125Y451250D02*
D03*
X1088125D02*
D03*
X1063125Y441250D02*
D03*
X1325625D02*
D03*
X1350625Y451250D02*
D03*
X94375Y376250D02*
D03*
X69375Y366250D02*
D03*
X275625D02*
D03*
X300625Y376250D02*
D03*
X375625D02*
D03*
X350625Y366250D02*
D03*
X425625D02*
D03*
X450625Y376250D02*
D03*
X525625D02*
D03*
X500625Y366250D02*
D03*
X575625D02*
D03*
X600625Y376250D02*
D03*
X675625D02*
D03*
X650625Y366250D02*
D03*
X725625D02*
D03*
X750625Y376250D02*
D03*
X825625D02*
D03*
X800625Y366250D02*
D03*
X875625D02*
D03*
X900625Y376250D02*
D03*
X975625D02*
D03*
X950625Y366250D02*
D03*
X1025625D02*
D03*
X1050625Y376250D02*
D03*
X1125625D02*
D03*
X1100625Y366250D02*
D03*
X1325625D02*
D03*
X1350625Y376250D02*
D03*
X94375Y301250D02*
D03*
X69375Y291250D02*
D03*
X294375D02*
D03*
X319375Y301250D02*
D03*
X394375D02*
D03*
X369375Y291250D02*
D03*
X444375D02*
D03*
X469375Y301250D02*
D03*
X544375D02*
D03*
X519375Y291250D02*
D03*
X594375D02*
D03*
X619375Y301250D02*
D03*
X694375D02*
D03*
X669375Y291250D02*
D03*
X744375D02*
D03*
X769375Y301250D02*
D03*
X844375D02*
D03*
X819375Y291250D02*
D03*
X894375D02*
D03*
X919375Y301250D02*
D03*
X994375D02*
D03*
X969375Y291250D02*
D03*
X1044374Y291250D02*
D03*
X1069374Y301250D02*
D03*
X1350625Y301250D02*
D03*
X1325625Y291250D02*
D03*
X69375Y216250D02*
D03*
X94375Y226250D02*
D03*
X356875D02*
D03*
X331875Y216250D02*
D03*
X406875D02*
D03*
X431875Y226250D02*
D03*
X506875D02*
D03*
X481875Y216250D02*
D03*
X556875D02*
D03*
X581875Y226250D02*
D03*
X656875D02*
D03*
X631875Y216250D02*
D03*
X706875D02*
D03*
X731875Y226250D02*
D03*
X806875D02*
D03*
X781875Y216250D02*
D03*
X856875D02*
D03*
X881875Y226250D02*
D03*
X956875D02*
D03*
X931875Y216250D02*
D03*
X1006875D02*
D03*
X1031875Y226250D02*
D03*
X1256875Y207500D02*
D03*
X1231875Y197500D02*
D03*
X1325625Y216250D02*
D03*
X1350625Y226250D02*
D03*
X94375Y151250D02*
D03*
X69375Y141250D02*
D03*
X1156875Y122500D02*
D03*
X1181875Y132500D02*
D03*
X1256875D02*
D03*
X1231875Y122500D02*
D03*
X216250Y301250D02*
D03*
X191250Y291250D02*
D03*
X1110000Y216250D02*
D03*
X1135000Y226250D02*
D03*
X172500Y141250D02*
D03*
X197500Y151250D02*
D03*
X291250D02*
D03*
X266250Y141250D02*
D03*
X360000D02*
D03*
X385000Y151250D02*
D03*
X206875Y376250D02*
D03*
X181875Y366250D02*
D03*
X1194375D02*
D03*
X1219375Y376250D02*
D03*
X956875Y151250D02*
D03*
X931875Y141250D02*
D03*
X1044375D02*
D03*
X1069375Y151250D02*
D03*
D13*
X1343700Y532159D02*
D03*
Y522159D02*
D03*
Y512159D02*
D03*
D14*
Y542159D02*
D03*
D15*
X74533Y552559D02*
D03*
X94217D02*
D03*
X84375Y495472D02*
D03*
X94217D02*
D03*
X74533D02*
D03*
D16*
X62328Y525000D02*
D03*
X106422D02*
D03*
D17*
X1364374Y485156D02*
D03*
Y496875D02*
D03*
D18*
X1354374Y485156D02*
D03*
Y496875D02*
D03*
M02*
